<?xml version="1.0" encoding="UTF-8"?>
<svg version="1.1" xmlns="http://www.w3.org/2000/svg" width="120" height="32" viewBox="0 0 1564 1084" preserveAspectRatio="xMinYMid meet">
<path d="M0 0 C0.97498444 0.00093658 1.94996887 0.00187317 2.95449829 0.00283813 C48.82002394 0.09817704 93.10480014 7.66377244 136.625 22.1875 C138.09960693 22.67839111 138.09960693 22.67839111 139.60400391 23.17919922 C194.29363259 41.63874318 243.17287329 72.39842274 285.625 111.1875 C286.62613974 112.09523117 287.62744953 113.00277481 288.62890625 113.91015625 C296.3751678 120.94614146 303.90444087 128.06286662 310.7265625 136.01171875 C312.89245005 138.49402198 315.13376957 140.89805145 317.375 143.3125 C323.15536924 149.66742402 328.42890617 156.35062229 333.625 163.1875 C334.16141113 163.88875 334.69782227 164.59 335.25048828 165.3125 C342.40759594 174.70374955 349.14302702 184.29754979 355.5 194.25 C356.42002808 195.68762695 356.42002808 195.68762695 357.35864258 197.15429688 C361.625 203.92937318 361.625 203.92937318 361.625 206.1875 C362.75679687 206.15398437 363.88859375 206.12046875 365.0546875 206.0859375 C382.66503472 206.10915994 400.23073044 213.02915779 413.625 224.1875 C414.34300781 224.78046875 415.06101562 225.3734375 415.80078125 225.984375 C428.08138229 237.14422216 434.64923407 254.76956777 435.83203125 271.03442383 C435.92788994 273.94288642 435.95396751 276.8400235 435.9375 279.75 C435.93258545 280.79357666 435.9276709 281.83715332 435.92260742 282.91235352 C435.78343661 292.23537079 434.75638683 301.11587741 432.625 310.1875 C432.38354248 311.21568848 432.38354248 311.21568848 432.13720703 312.26464844 C428.93019228 325.33300248 423.9027317 338.42564597 417.50146484 350.265625 C416.16440051 353.19748306 416.64753655 355.69937624 416.9375 358.875 C417.03675781 360.03386719 417.13601563 361.19273437 417.23828125 362.38671875 C417.67276657 366.65696335 418.14018512 370.92271061 418.625 375.1875 C419.56255127 375.15720703 420.50010254 375.12691406 421.46606445 375.09570312 C554.57452394 370.86325701 554.57452394 370.86325701 600.625 412.1875 C601.5428125 412.98414063 602.460625 413.78078125 603.40625 414.6015625 C608.59865115 419.15273338 613.2023011 423.89670937 617.625 429.1875 C618.83929687 430.57001953 618.83929687 430.57001953 620.078125 431.98046875 C627.60730951 440.59229901 634.19420829 449.73667109 640.625 459.1875 C641.25003418 460.1038623 641.87506836 461.02022461 642.51904297 461.96435547 C644.47899096 464.84594856 646.42919742 467.73383923 648.375 470.625 C648.99608643 471.54345703 649.61717285 472.46191406 650.25708008 473.40820312 C650.8270874 474.26220703 651.39709473 475.11621094 651.984375 475.99609375 C652.49452148 476.75720459 653.00466797 477.51831543 653.53027344 478.30249023 C654.625 480.1875 654.625 480.1875 654.625 482.1875 C652.69865723 482.36756592 652.69865723 482.36756592 650.73339844 482.55126953 C572.05497808 489.95472709 494.80746386 503.35665046 418.01953125 522.0703125 C417.19208908 522.27082214 416.36464691 522.47133179 415.51213074 522.67791748 C411.46564425 523.63664963 411.46564425 523.63664963 407.625 525.1875 C406.81460773 527.22092751 406.81460773 527.22092751 406.1796875 529.7265625 C405.7782251 531.16733154 405.7782251 531.16733154 405.36865234 532.63720703 C405.08199707 533.68505371 404.7953418 534.73290039 404.5 535.8125 C390.63287999 584.5827628 368.43174489 630.78653889 337.625 671.1875 C337.15255859 671.81011719 336.68011719 672.43273437 336.19335938 673.07421875 C318.9516182 695.69345402 299.48469347 717.92921197 277.625 736.1875 C276.30628906 737.33992187 276.30628906 737.33992187 274.9609375 738.515625 C258.90892231 752.48197731 241.50983306 764.69893973 223.625 776.1875 C222.98353027 776.60161133 222.34206055 777.01572266 221.68115234 777.44238281 C175.0302775 807.28550685 120.94948109 826.25706446 66.4375 834.9375 C65.20523682 835.13617676 63.97297363 835.33485352 62.70336914 835.53955078 C42.20372801 838.65758026 21.77773157 839.56662959 1.0625 839.5 C-0.11988251 839.49817719 -1.30226501 839.49635437 -2.52047729 839.49447632 C-20.65264196 839.44752201 -38.42008756 838.90332497 -56.375 836.1875 C-57.57189453 836.01057617 -58.76878906 835.83365234 -60.00195312 835.65136719 C-123.54962301 826.02444389 -191.10980392 803.15011466 -241.87158203 762.5871582 C-244.24427495 760.97546186 -244.24427495 760.97546186 -246.75830078 761.27758789 C-250.0506417 762.42244277 -253.2058386 763.78189554 -256.359375 765.2578125 C-257.03897781 765.57052094 -257.71858063 765.88322937 -258.41877747 766.20541382 C-260.65646424 767.23624817 -262.890678 768.27439534 -265.125 769.3125 C-266.70147066 770.04030057 -268.27821657 770.76750519 -269.85522461 771.49414062 C-272.28983147 772.61596339 -274.72426969 773.73813406 -277.15782166 774.86224365 C-282.37309924 777.27048959 -287.59733253 779.65771774 -292.83203125 782.0234375 C-293.50564194 782.32791809 -294.17925262 782.63239868 -294.87327576 782.94610596 C-296.22208109 783.55571692 -297.57089189 784.16531579 -298.91970825 784.77490234 C-313.05936175 791.16992039 -327.11489071 797.73414142 -341.14588928 804.36366272 C-341.84411301 804.69353683 -342.54233673 805.02341095 -343.26171875 805.36328125 C-343.95385971 805.69029526 -344.64600067 806.01730927 -345.3591156 806.35423279 C-351.89037197 809.43685035 -358.44385697 812.47071607 -365 815.5 C-377.40691998 821.23766653 -389.74983394 827.10633095 -402.09088135 832.98394775 C-416.46874792 839.82985164 -430.88929105 846.57244033 -445.375 853.1875 C-445.375 850.1875 -445.375 850.1875 -444.125 848.609375 C-443.5475 848.05765625 -442.97 847.5059375 -442.375 846.9375 C-441.818125 846.39609375 -441.26125 845.8546875 -440.6875 845.296875 C-438.69403249 843.47850937 -436.66839602 841.71460434 -434.625 839.953125 C-430.34205648 836.21942933 -426.35201798 832.24219412 -422.375 828.1875 C-417.84521287 823.56924047 -413.24540516 819.1555272 -408.34375 814.93359375 C-405.03744565 812.00121668 -401.96780628 808.84166989 -398.875 805.6875 C-394.51127105 801.27664771 -390.14059026 796.98986042 -385.39453125 792.98828125 C-382.09541397 790.04651517 -379.02147634 786.87645884 -375.93676758 783.7121582 C-372.59143557 780.30770733 -369.08580652 777.15722094 -365.4765625 774.03515625 C-361.85255807 770.84899622 -358.37158097 767.51211797 -354.875 764.1875 C-350.05194848 759.60164774 -345.18527752 755.09759541 -340.15673828 750.73730469 C-337.92634958 748.79725159 -335.74421987 746.80699697 -333.5625 744.8125 C-330.09969918 741.68327173 -326.56820997 738.68249651 -322.9375 735.75 C-318.09558517 731.83263751 -313.48574555 727.71124519 -308.90234375 723.49609375 C-305.78710402 720.65048837 -302.59837157 717.90945822 -299.375 715.1875 C-302.69116525 711.2761256 -306.05395908 707.42254965 -309.5 703.625 C-311.12800623 701.81519974 -312.75277763 700.00248645 -314.375 698.1875 C-314.81585937 697.69427246 -315.25671875 697.20104492 -315.7109375 696.69287109 C-334.32188014 675.74898896 -350.4678423 652.49348707 -364.375 628.1875 C-364.79313965 627.46336914 -365.2112793 626.73923828 -365.64208984 625.99316406 C-383.28997454 595.2815953 -396.15978799 562.35411379 -405.375 528.1875 C-405.65182617 527.1680127 -405.92865234 526.14852539 -406.21386719 525.09814453 C-414.70633963 493.29491088 -417.94777113 461.01376395 -419.375 428.1875 C-581.075 428.1875 -742.775 428.1875 -909.375 428.1875 C-909.375 424.5575 -909.375 420.9275 -909.375 417.1875 C-906.61585752 414.42835752 -904.35993514 412.48735285 -901.17285156 410.39697266 C-898.32333062 408.48000813 -895.59320813 406.40604371 -892.84106445 404.3527832 C-890.38343428 402.52222941 -887.91432743 400.7082718 -885.44140625 398.8984375 C-880.57848081 395.33819794 -875.72561023 391.76449193 -870.875 388.1875 C-869.2917158 387.02076665 -867.70838238 385.8541001 -866.125 384.6875 C-864.949375 383.82125 -864.949375 383.82125 -863.75 382.9375 C-804.375 339.1875 -745 295.4375 -685.625 251.6875 C-684.84116943 251.10991943 -684.05733887 250.53233887 -683.24975586 249.93725586 C-681.66731815 248.77129194 -680.08479869 247.60543896 -678.50219727 246.43969727 C-674.52948113 243.51318557 -670.55823006 240.58472466 -666.58984375 237.65234375 C-665.78933594 237.06130859 -664.98882813 236.47027344 -664.1640625 235.86132812 C-662.69084535 234.77354569 -661.21811174 233.68510774 -659.74609375 232.59570312 C-658.27592921 231.51064602 -656.78370811 230.45507994 -655.27511597 229.42411804 C-652.99645331 227.66677521 -651.376093 226.12778419 -649.48318481 224.02754211 C-637.16732639 211.64889921 -622.10949513 212.54336295 -605.78779531 212.43896228 C-601.62327731 212.43403326 -597.45936419 212.4655513 -593.29499698 212.49845219 C-587.80125082 212.52760278 -582.3080912 212.4815243 -576.81446838 212.44403076 C-566.35945851 212.38369885 -555.90555007 212.3881738 -545.45044619 212.41702914 C-533.80549649 212.44651546 -522.16112294 212.40993858 -510.51625896 212.36456203 C-504.81680769 212.34300024 -499.11734239 212.32612587 -493.4178772 212.30871582 C-486.68986562 212.2878929 -479.9618623 212.26610623 -473.23386765 212.24034119 C-466.69742466 212.21555285 -460.16097829 212.19516274 -453.62451172 212.17773438 C-452.05376739 212.17314162 -452.05376739 212.17314162 -450.45129085 212.16845608 C-438.1458919 212.13661175 -425.85191743 212.2147139 -413.54944134 212.4866066 C-408.12734659 212.60524024 -402.70514095 212.66854885 -397.28196794 212.71288848 C-393.83198089 212.74514916 -390.38988042 212.80915473 -386.94280815 212.95816803 C-373.89425358 214.05809522 -373.89425358 214.05809522 -362.26018524 209.42765999 C-358.65133865 205.1452793 -356.33306011 200.4495679 -354.25753784 195.27934647 C-353.1188186 192.58028281 -351.60300104 190.25687776 -349.9140625 187.87109375 C-349.4298584 187.15904785 -348.9456543 186.44700195 -348.44677734 185.71337891 C-347.96934082 185.02421387 -347.4919043 184.33504883 -347 183.625 C-346.46455566 182.84817871 -345.92911133 182.07135742 -345.37744141 181.27099609 C-333.69152143 164.46630919 -320.7955448 148.76224478 -306.85791016 133.78808594 C-305.25416316 132.0570742 -303.66369009 130.3144376 -302.07421875 128.5703125 C-292.10792595 117.67066847 -292.10792595 117.67066847 -286.5078125 113.0078125 C-284.23854287 111.07103659 -282.07199592 109.03923033 -279.90234375 106.9921875 C-273.25466358 100.73739623 -266.31579415 95.02188576 -259.06298828 89.48583984 C-257.47507021 88.26447041 -255.90671572 87.01778576 -254.33984375 85.76953125 C-239.92446486 74.36743156 -224.35729198 64.25392386 -208.375 55.1875 C-207.53727051 54.70990234 -206.69954102 54.23230469 -205.83642578 53.74023438 C-181.40055906 39.90487321 -156.03098927 28.98586695 -129.375 20.1875 C-128.2828418 19.82672363 -127.19068359 19.46594727 -126.06542969 19.09423828 C-85.30993848 5.85694262 -42.78191243 -0.05322888 0 0 Z M53.625 30.1875 C56.012793 33.28846126 58.36844915 35.99661158 61.375 38.5 C65.05070046 41.63495495 68.43569589 44.97408843 71.8203125 48.41796875 C73.6797614 50.30762013 73.6797614 50.30762013 76.1875 52.1875 C79.07228333 54.5545017 81.32972762 57.22471295 83.74609375 60.05859375 C85.5841323 62.1411946 87.50496347 64.06842387 89.5 66 C93.39311482 69.8408081 96.80816784 73.96622559 100.2265625 78.23046875 C102.26078277 80.73845694 104.34523999 83.18879853 106.46289062 85.6262207 C136.9143261 120.85359586 162.46189279 163.93310727 179.625 207.1875 C189.4166511 207.21936568 199.20830583 207.23889666 209 207.25 C209.74933681 207.25085602 210.49867363 207.25171204 211.27071762 207.25259399 C238.82928688 207.28026616 266.38139827 207.04524588 293.9375 206.6875 C294.85897575 206.67554218 295.78045151 206.66358437 296.72985077 206.65126419 C308.02833757 206.50398159 319.32671383 206.34943687 330.625 206.1875 C329.52899999 204.4519883 328.43124128 202.71758717 327.33276367 200.98364258 C326.7216423 200.01767654 326.11052094 199.05171051 325.48088074 198.05647278 C322.78152147 193.88358165 319.89467946 189.8677643 316.9375 185.875 C316.33591064 185.0610376 315.73432129 184.2470752 315.11450195 183.40844727 C309.61067864 176.03744918 303.74762284 169.047925 297.625 162.1875 C296.88121094 161.34445313 296.13742187 160.50140625 295.37109375 159.6328125 C293.14375685 157.13064766 290.88991276 154.65571989 288.625 152.1875 C288.09084473 151.60291016 287.55668945 151.01832031 287.00634766 150.41601562 C278.24719354 140.73654027 278.24719354 140.73654027 268.65625 131.90625 C266.54478057 130.11962202 264.52973577 128.24520343 262.51318359 126.3527832 C256.12679092 120.37957921 249.43935775 114.91147412 242.48876953 109.60986328 C241.229036 108.64847901 239.97226732 107.68319923 238.71826172 106.71435547 C218.15814219 90.83004677 195.96641405 77.34263809 172.53466797 66.10986328 C170.63965806 65.19457979 168.75912358 64.25383161 166.87890625 63.30859375 C132.05294401 46.0557673 92.31357 34.00371949 53.625 30.1875 Z M-59.7109375 30.9375 C-60.82307617 31.12973145 -61.93521484 31.32196289 -63.08105469 31.52001953 C-98.5645633 37.97543027 -132.71349437 47.73972227 -165.375 63.1875 C-166.35903809 63.65269043 -167.34307617 64.11788086 -168.35693359 64.59716797 C-186.84988335 73.42623139 -204.54653295 83.48174812 -221.375 95.1875 C-222.99535156 96.30318359 -222.99535156 96.30318359 -224.6484375 97.44140625 C-233.92722092 103.90101888 -242.71934699 110.91945553 -251.375 118.1875 C-251.86841888 118.59833832 -252.36183777 119.00917664 -252.87020874 119.4324646 C-261.45727219 126.59617116 -269.59465146 134.0878804 -277.47241211 142.02416992 C-279.19748477 143.76004731 -280.93311991 145.4848509 -282.66992188 147.20898438 C-289.36358074 153.89474431 -295.5029399 160.76091022 -301.375 168.1875 C-302.23804193 169.21534093 -303.10644668 170.23875098 -303.984375 171.25390625 C-321.90036042 190.2790139 -321.90036042 190.2790139 -332.375 212.1875 C-315.96994808 212.07948028 -299.56493762 211.96659237 -283.15995789 211.84816074 C-275.54008312 211.79326025 -267.92020376 211.73985746 -260.30029297 211.69018555 C-253.64629593 211.64680611 -246.99232738 211.60040791 -240.33837509 211.55062145 C-236.82652515 211.52444411 -233.31467927 211.4996169 -229.80279541 211.47842598 C-212.9729402 211.37578173 -196.18490044 211.03650268 -179.375 210.1875 C-179.06923538 209.47618423 -178.76347076 208.76486847 -178.44844055 208.03199768 C-158.44380733 161.54592089 -133.08861884 117.19102543 -99.375 79.1875 C-98.14524445 77.77134449 -96.91598098 76.35476131 -95.6875 74.9375 C-94.58431648 73.68663224 -93.47999479 72.436768 -92.375 71.1875 C-91.75270508 70.48036865 -91.13041016 69.7732373 -90.48925781 69.04467773 C-84.95968782 62.82358986 -79.20457122 56.86158313 -73.30883789 50.9909668 C-71.80693075 49.49445075 -70.31048938 47.992617 -68.81445312 46.49023438 C-63.5072698 41.1797736 -58.12308482 36.02147171 -52.375 31.1875 C-55.12242364 29.81378818 -56.69197742 30.41564342 -59.7109375 30.9375 Z M13.625 33.1875 C13.625 91.2675 13.625 149.3475 13.625 209.1875 C33.445625 209.043125 53.26625 208.89875 73.6875 208.75 C79.92019775 208.70689697 86.15289551 208.66379395 92.57446289 208.61938477 C98.21581728 208.5760794 98.21581728 208.5760794 103.85716248 208.53160095 C106.34815805 208.51251991 108.83916724 208.49516579 111.33018494 208.47923279 C130.99987087 208.3834021 130.99987087 208.3834021 150.625 207.1875 C148.4555459 200.5292256 145.44774206 194.43652265 142.3125 188.1875 C141.847229 187.25827225 141.847229 187.25827225 141.37255859 186.31027222 C125.89681447 155.50176639 106.84733125 125.92247145 84.11328125 99.94677734 C82.99548465 98.62544494 81.90941644 97.27716654 80.83984375 95.91650391 C74.52465447 87.93200356 67.51952652 80.77652051 60.30566406 73.60742188 C58.25351459 71.56599623 56.21228579 69.51408861 54.171875 67.4609375 C46.95808845 60.2397225 39.65477812 53.4993729 31.625 47.1875 C30.37108642 46.13532307 29.12287183 45.07628262 27.8828125 44.0078125 C27.35429688 43.5540625 26.82578125 43.1003125 26.28125 42.6328125 C25.23538078 41.7310171 24.19118164 40.82728211 23.1484375 39.921875 C20.05767295 37.27483407 17.16201145 35.30970687 13.625 33.1875 Z M-17.796875 36.828125 C-18.48450928 37.39692383 -19.17214355 37.96572266 -19.88061523 38.55175781 C-20.62126221 39.17405273 -21.36190918 39.79634766 -22.125 40.4375 C-22.897229 41.08299805 -23.66945801 41.72849609 -24.46508789 42.39355469 C-26.04176174 43.71343968 -27.61671842 45.03537868 -29.18994141 46.359375 C-31.01212366 47.88390022 -32.84839406 49.38560614 -34.69921875 50.875 C-43.25246157 57.8561431 -51.01188072 65.64053023 -58.8125 73.4375 C-59.38120819 74.00521118 -59.94991638 74.57292236 -60.53585815 75.15783691 C-66.69571496 81.31891695 -72.77103779 87.50871921 -78.375 94.1875 C-78.90810791 94.81382324 -79.44121582 95.44014648 -79.99047852 96.08544922 C-125.854779 148.42709376 -125.854779 148.42709376 -150.375 210.1875 C-104.36117255 210.36413427 -58.39282936 209.77747217 -12.375 209.1875 C-12.375 151.4375 -12.375 93.6875 -12.375 34.1875 C-15.04757261 34.1875 -15.75634592 35.12893639 -17.796875 36.828125 Z M-392.375 428.1875 C-392.375 485.94988186 -378.77648638 555.58527043 -346.375 604.1875 C-343.55242055 604.63686803 -343.55242055 604.63686803 -340.17416382 604.54826355 C-339.53133725 604.55082682 -338.88851068 604.5533901 -338.22620451 604.55603105 C-336.06249805 604.56099024 -333.89948249 604.54444197 -331.73583984 604.52807617 C-330.18876665 604.52723036 -328.64169225 604.52770415 -327.09461975 604.52940369 C-322.88608995 604.53026685 -318.67781502 604.51258945 -314.46934462 604.49168181 C-310.07443491 604.47296826 -305.67951981 604.47116879 -301.28457642 604.46760559 C-292.95829256 604.45826943 -284.63212643 604.43363448 -276.30589449 604.40355712 C-266.82841504 604.37006189 -257.35093005 604.35353939 -247.87340617 604.33847082 C-228.37387063 604.30708624 -208.87444477 604.25429532 -189.375 604.1875 C-189.68563889 603.21430817 -189.99627777 602.24111633 -190.31632996 601.23843384 C-191.49465209 597.54275078 -192.66701903 593.84519898 -193.83781433 590.14712524 C-194.34030167 588.56268555 -194.84429208 586.97872157 -195.34996033 585.39529419 C-210.16226075 538.99294118 -217.77471364 491.102091 -219.78027344 442.50146484 C-219.81447891 441.69329315 -219.84868439 440.88512146 -219.88392639 440.05245972 C-219.94680248 438.53256161 -220.00532327 437.01247507 -220.05882263 435.49221802 C-220.15946856 431.71384902 -220.15946856 431.71384902 -221.375 428.1875 C-277.805 428.1875 -334.235 428.1875 -392.375 428.1875 Z M-194.375 428.1875 C-194.375 483.98602422 -186.77811519 553.38126961 -161.375 604.1875 C-155.55480898 604.8987717 -152.81577198 603.6034977 -148.17407227 600.125 C-147.43600342 599.5475 -146.69793457 598.97 -145.9375 598.375 C-144.33454268 597.16896388 -142.73035312 595.96456398 -141.125 594.76171875 C-139.92617188 593.85365479 -139.92617188 593.85365479 -138.703125 592.92724609 C-135.34533749 590.4180605 -131.90358295 588.04375344 -128.4375 585.6875 C-127.45656372 585.01775146 -127.45656372 585.01775146 -126.45581055 584.33447266 C-125.11218099 583.41735843 -123.76801904 582.50102375 -122.42333984 581.58544922 C-120.34705376 580.16842728 -118.27643111 578.74346286 -116.20703125 577.31640625 C-88.43013404 558.18706288 -60.23369566 539.6529476 -31.74609375 521.6015625 C-25.27376266 517.4875135 -18.82615721 513.33467249 -12.375 509.1875 C-12.375 482.4575 -12.375 455.7275 -12.375 428.1875 C-72.435 428.1875 -132.495 428.1875 -194.375 428.1875 Z M13.625 428.1875 C13.625 449.3075 13.625 470.4275 13.625 492.1875 C17.44158589 490.66086565 20.51988758 489.17565693 24 487.08984375 C25.0526001 486.46198975 26.1052002 485.83413574 27.18969727 485.18725586 C28.02707932 484.68450638 28.02707932 484.68450638 28.88137817 484.17160034 C31.27879972 482.73255997 33.68119874 481.30192554 36.08338928 479.87086487 C37.34739123 479.11784352 38.61117178 478.36445043 39.8747406 477.61070251 C46.62732737 473.58420114 53.40403574 469.59920961 60.1875 465.625 C60.78983459 465.27206879 61.39216919 464.91913757 62.01275635 464.55551147 C82.44818933 452.58655693 102.98271916 440.79618711 123.625 429.1875 C123.625 428.8575 123.625 428.5275 123.625 428.1875 C87.325 428.1875 51.025 428.1875 13.625 428.1875 Z M370.73510742 533.12695312 C369.94644287 533.33623947 369.15777832 533.54552582 368.34521484 533.76115417 C367.48234863 533.9946608 366.61948242 534.22816742 365.73046875 534.46875 C364.8170874 534.71341507 363.90370605 534.95808014 362.96264648 535.2101593 C359.91109512 536.03048372 356.86159909 536.85810905 353.8125 537.6875 C352.75358551 537.97483002 351.69467102 538.26216003 350.60366821 538.55819702 C315.26062082 548.16844455 280.1979799 558.73456319 245.25 569.6875 C243.71102554 570.16952377 243.71102554 570.16952377 242.14096069 570.6612854 C237.25393001 572.19475917 232.37319271 573.74429542 227.50097656 575.32421875 C223.34279196 576.66614868 219.16494337 577.8952502 214.95996094 579.08203125 C212.77270489 579.73149618 210.58552817 580.38122835 208.3984375 581.03125 C207.37835602 581.30005981 206.35827454 581.56886963 205.30728149 581.8458252 C199.94817752 583.46657726 199.94817752 583.46657726 196.14093018 587.35864258 C193.87205313 592.74398887 192.85929164 598.4951104 191.625 604.1875 C211.86098483 604.42111957 232.096696 604.59745119 252.33374977 604.70562172 C261.73028266 604.75718297 271.12597763 604.82747377 280.52197266 604.94189453 C288.71176343 605.04157905 296.90094744 605.10608425 305.09132802 605.12838495 C309.42833469 605.14142148 313.7636056 605.17204221 318.10005569 605.24480057 C322.18325863 605.31275392 326.26401405 605.33360431 330.34772873 605.31857681 C331.84502223 605.321325 333.34239863 605.34118269 334.83920288 605.37955475 C339.24835022 605.48703011 343.35867867 605.46467202 347.625 604.1875 C350.62064342 601.2027823 352.12238206 598.10082671 353.625 594.1875 C354.16616455 593.12587646 354.7073291 592.06425293 355.26489258 590.97045898 C356.6655121 587.8593339 358.06356488 584.74803484 359.4375 581.625 C359.95304443 580.45912354 360.46858887 579.29324707 360.99975586 578.09204102 C367.50970463 563.147857 373.08427675 547.84346848 377.625 532.1875 C374.98498206 532.1875 373.24154731 532.45672177 370.73510742 533.12695312 Z M157.61328125 598.5 C156.85595703 598.77070312 156.09863281 599.04140625 155.31835938 599.3203125 C154.13983398 599.74957031 154.13983398 599.74957031 152.9375 600.1875 C152.14021484 600.47367188 151.34292969 600.75984375 150.52148438 601.0546875 C148.55446666 601.76140045 146.58952901 602.47389811 144.625 603.1875 C144.625 603.5175 144.625 603.8475 144.625 604.1875 C150.565 604.1875 156.505 604.1875 162.625 604.1875 C164.8486068 600.4856424 164.8486068 600.4856424 164.625 597.1875 C161.76684149 597.1875 160.24677971 597.54956447 157.61328125 598.5 Z M-331.375 630.1875 C-315.91156098 654.48718988 -298.10106503 676.25241808 -278.375 697.1875 C-273.75914078 695.72581125 -270.65407553 693.05847581 -267.125 689.875 C-261.90300698 685.27905988 -256.55463631 680.93743905 -251 676.75 C-245.26072393 672.41968596 -239.62079663 667.99798273 -234.0625 663.4375 C-228.75509049 659.09072204 -223.38520295 654.87302133 -217.87109375 650.7890625 C-212.96479733 647.15264876 -208.11052819 643.44720608 -203.25 639.75 C-202.31196533 639.0386792 -201.37393066 638.3273584 -200.4074707 637.59448242 C-199.52792725 636.92521729 -198.64838379 636.25595215 -197.7421875 635.56640625 C-196.94925293 634.9638501 -196.15631836 634.36129395 -195.33935547 633.74047852 C-193.30031071 632.19025419 -193.30031071 632.19025419 -191.375 630.1875 C-237.575 630.1875 -283.775 630.1875 -331.375 630.1875 Z M30.74682617 644.15112305 C25.21471883 646.88424555 19.38414099 648.97244577 13.625 651.1875 C13.625 702.3375 13.625 753.4875 13.625 806.1875 C33.86779369 792.6923042 54.14912422 774.99203326 69.9375 756.4375 C72.68298122 753.24564878 75.51089615 750.14831173 78.375 747.0625 C84.15725025 740.71250615 89.41366046 734.00897592 94.625 727.1875 C95.36435791 726.22553711 95.36435791 726.22553711 96.11865234 725.24414062 C111.8633001 704.72393712 125.28835288 682.90276161 137.625 660.1875 C137.99254395 659.51557617 138.36008789 658.84365234 138.73876953 658.15136719 C147.2684766 644.66976154 147.2684766 644.66976154 151.625 630.1875 C89.35841879 626.34971365 89.35841879 626.34971365 30.74682617 644.15112305 Z M180.625 630.1875 C177.655 636.7875 174.685 643.3875 171.625 650.1875 C156.89902936 682.45470037 138.35430692 713.13625187 116.625 741.1875 C116.19477539 741.74775879 115.76455078 742.30801758 115.32128906 742.88525391 C109.3814192 750.61467292 103.22485638 758.00604708 96.625 765.1875 C95.49560071 766.47532181 94.370415 767.76685422 93.25 769.0625 C81.70592803 782.28232435 69.71244975 794.91382328 56.125 806.0625 C55.3 806.76375 54.475 807.465 53.625 808.1875 C53.625 808.5175 53.625 808.8475 53.625 809.1875 C61.99133065 808.63850592 70.05064132 807.28579818 78.25 805.5625 C79.51690674 805.29671143 80.78381348 805.03092285 82.08911133 804.75708008 C112.43054742 798.24058218 141.52136061 788.32196187 169.625 775.1875 C170.49286133 774.78450684 171.36072266 774.38151367 172.25488281 773.96630859 C193.22907741 764.13388768 213.01796842 751.95688696 231.625 738.1875 C233.03893823 737.15607963 234.45300266 736.12483223 235.8671875 735.09375 C243.49773334 729.48997156 250.69636764 723.65171316 257.625 717.1875 C258.9532573 716.0150575 260.28641541 714.84813783 261.625 713.6875 C262.95882798 712.52139889 264.29214039 711.35470784 265.625 710.1875 C266.74455078 709.20910156 266.74455078 709.20910156 267.88671875 708.2109375 C277.74132182 699.48302818 287.12259804 690.24235752 295.625 680.1875 C296.89150391 678.75470703 296.89150391 678.75470703 298.18359375 677.29296875 C319.67108389 655.52233578 319.67108389 655.52233578 332.625 630.1875 C282.465 630.1875 232.305 630.1875 180.625 630.1875 Z M-19.53857422 664.15258789 C-20.62461945 664.58515396 -21.71066467 665.01772003 -22.82962036 665.46339417 C-24.01764252 665.94082565 -25.20566467 666.41825714 -26.4296875 666.91015625 C-27.67526796 667.40815392 -28.92094657 667.90590617 -30.16671753 668.40342712 C-33.50643807 669.73846457 -36.84423763 671.07824183 -40.18156433 672.41925049 C-42.24192843 673.2467582 -44.30282007 674.07293766 -46.3638916 674.89868164 C-67.77746013 683.4789047 -89.1316878 692.19282236 -110.375 701.1875 C-108.75553606 705.45954198 -106.62238282 708.95108609 -103.9375 712.625 C-103.49720459 713.23335693 -103.05690918 713.84171387 -102.60327148 714.46850586 C-91.71575935 729.39923799 -79.87388547 743.58234672 -67.375 757.1875 C-66.83939453 757.77354004 -66.30378906 758.35958008 -65.75195312 758.96337891 C-57.02720255 768.60662375 -57.02720255 768.60662375 -47.47265625 777.40234375 C-45.21335326 779.32506529 -43.0603462 781.34655836 -40.90283203 783.38208008 C-31.97034515 791.78811759 -22.58841844 799.37855438 -12.375 806.1875 C-12.375 758.6675 -12.375 711.1475 -12.375 662.1875 C-15.09100862 662.1875 -17.01215777 663.14210943 -19.53857422 664.15258789 Z M-139.45936584 712.86639404 C-140.32105881 713.24402893 -141.18275177 713.62166382 -142.07055664 714.01074219 C-143.05081314 714.43579041 -144.03106964 714.86083862 -145.04103088 715.29876709 C-146.11159225 715.7725177 -147.18215363 716.24626831 -148.28515625 716.734375 C-149.95655922 717.46312836 -149.95655922 717.46312836 -151.66172791 718.206604 C-155.25690129 719.77625646 -158.84719975 721.35673748 -162.4375 722.9375 C-164.76987206 723.95774077 -167.10255122 724.97727977 -169.43554688 725.99609375 C-174.08665969 728.02868509 -178.73423302 730.06908113 -183.37939453 732.11523438 C-188.13299691 734.20785055 -192.89490264 736.27985342 -197.66357422 738.33789062 C-198.82304062 738.84080627 -199.98250702 739.34372192 -201.17710876 739.86187744 C-203.38888215 740.82092571 -205.60280697 741.77503131 -207.81910706 742.72357178 C-209.29008095 743.36362152 -209.29008095 743.36362152 -210.79077148 744.01660156 C-212.08723854 744.57519867 -212.08723854 744.57519867 -213.40989685 745.14508057 C-215.53842251 746.0305379 -215.53842251 746.0305379 -216.375 748.1875 C-168.67257809 777.19958715 -119.0439654 798.60166625 -63.75 808.1875 C-63.04045166 808.31229736 -62.33090332 808.43709473 -61.59985352 808.56567383 C-58.2690773 809.09364749 -55.57990242 809.35883489 -52.375 808.1875 C-53.69531588 806.96874688 -55.01566952 805.75003463 -56.33618164 804.53149414 C-57.50395859 803.45322859 -58.67109617 802.37427024 -59.83764648 801.29467773 C-62.7812131 798.57224257 -65.73172733 795.85920222 -68.7109375 793.17578125 C-75.87439488 786.69820979 -82.52995415 779.91480225 -88.98144531 772.72949219 C-90.29342588 771.27776317 -91.62654015 769.84521374 -92.9609375 768.4140625 C-98.99188751 761.92651059 -104.49997226 755.13813066 -109.88916016 748.11914062 C-111.44291462 746.09920877 -113.00806483 744.0884543 -114.57421875 742.078125 C-120.6381527 734.25851038 -126.47222258 726.3445197 -131.94921875 718.10009766 C-134.6572333 713.18667535 -134.6572333 713.18667535 -139.45936584 712.86639404 Z " fill="#FDFDFD" transform="translate(909.375,-0.1875)"/>
<path d="M0 0 C0.97498444 0.00093658 1.94996887 0.00187317 2.95449829 0.00283813 C48.82002394 0.09817704 93.10480014 7.66377244 136.625 22.1875 C138.09960693 22.67839111 138.09960693 22.67839111 139.60400391 23.17919922 C194.29363259 41.63874318 243.17287329 72.39842274 285.625 111.1875 C286.62613974 112.09523117 287.62744953 113.00277481 288.62890625 113.91015625 C296.3751678 120.94614146 303.90444087 128.06286662 310.7265625 136.01171875 C312.89245005 138.49402198 315.13376957 140.89805145 317.375 143.3125 C323.15536924 149.66742402 328.42890617 156.35062229 333.625 163.1875 C334.16141113 163.88875 334.69782227 164.59 335.25048828 165.3125 C342.40759594 174.70374955 349.14302702 184.29754979 355.5 194.25 C356.42002808 195.68762695 356.42002808 195.68762695 357.35864258 197.15429688 C361.625 203.92937318 361.625 203.92937318 361.625 206.1875 C362.75679687 206.15398437 363.88859375 206.12046875 365.0546875 206.0859375 C382.66503472 206.10915994 400.23073044 213.02915779 413.625 224.1875 C414.34300781 224.78046875 415.06101562 225.3734375 415.80078125 225.984375 C428.08138229 237.14422216 434.64923407 254.76956777 435.83203125 271.03442383 C435.92788994 273.94288642 435.95396751 276.8400235 435.9375 279.75 C435.93258545 280.79357666 435.9276709 281.83715332 435.92260742 282.91235352 C435.78343661 292.23537079 434.75638683 301.11587741 432.625 310.1875 C432.38354248 311.21568848 432.38354248 311.21568848 432.13720703 312.26464844 C428.93019228 325.33300248 423.9027317 338.42564597 417.50146484 350.265625 C416.16440051 353.19748306 416.64753655 355.69937624 416.9375 358.875 C417.03675781 360.03386719 417.13601563 361.19273437 417.23828125 362.38671875 C417.67276657 366.65696335 418.14018512 370.92271061 418.625 375.1875 C419.56255127 375.15720703 420.50010254 375.12691406 421.46606445 375.09570312 C554.57452394 370.86325701 554.57452394 370.86325701 600.625 412.1875 C601.5428125 412.98414063 602.460625 413.78078125 603.40625 414.6015625 C608.59865115 419.15273338 613.2023011 423.89670937 617.625 429.1875 C618.83929687 430.57001953 618.83929687 430.57001953 620.078125 431.98046875 C627.60730951 440.59229901 634.19420829 449.73667109 640.625 459.1875 C641.25003418 460.1038623 641.87506836 461.02022461 642.51904297 461.96435547 C644.47899096 464.84594856 646.42919742 467.73383923 648.375 470.625 C648.99608643 471.54345703 649.61717285 472.46191406 650.25708008 473.40820312 C650.8270874 474.26220703 651.39709473 475.11621094 651.984375 475.99609375 C652.49452148 476.75720459 653.00466797 477.51831543 653.53027344 478.30249023 C654.625 480.1875 654.625 480.1875 654.625 482.1875 C652.69865723 482.36756592 652.69865723 482.36756592 650.73339844 482.55126953 C572.05497808 489.95472709 494.80746386 503.35665046 418.01953125 522.0703125 C417.19208908 522.27082214 416.36464691 522.47133179 415.51213074 522.67791748 C411.46564425 523.63664963 411.46564425 523.63664963 407.625 525.1875 C406.81460773 527.22092751 406.81460773 527.22092751 406.1796875 529.7265625 C405.7782251 531.16733154 405.7782251 531.16733154 405.36865234 532.63720703 C405.08199707 533.68505371 404.7953418 534.73290039 404.5 535.8125 C390.63287999 584.5827628 368.43174489 630.78653889 337.625 671.1875 C337.15255859 671.81011719 336.68011719 672.43273437 336.19335938 673.07421875 C318.9516182 695.69345402 299.48469347 717.92921197 277.625 736.1875 C276.30628906 737.33992187 276.30628906 737.33992187 274.9609375 738.515625 C258.90892231 752.48197731 241.50983306 764.69893973 223.625 776.1875 C222.98353027 776.60161133 222.34206055 777.01572266 221.68115234 777.44238281 C175.0302775 807.28550685 120.94948109 826.25706446 66.4375 834.9375 C65.20523682 835.13617676 63.97297363 835.33485352 62.70336914 835.53955078 C42.20372801 838.65758026 21.77773157 839.56662959 1.0625 839.5 C-0.11988251 839.49817719 -1.30226501 839.49635437 -2.52047729 839.49447632 C-20.65264196 839.44752201 -38.42008756 838.90332497 -56.375 836.1875 C-57.57189453 836.01057617 -58.76878906 835.83365234 -60.00195312 835.65136719 C-123.54962301 826.02444389 -191.10980392 803.15011466 -241.87158203 762.5871582 C-244.24427495 760.97546186 -244.24427495 760.97546186 -246.75830078 761.27758789 C-250.0506417 762.42244277 -253.2058386 763.78189554 -256.359375 765.2578125 C-257.03897781 765.57052094 -257.71858063 765.88322937 -258.41877747 766.20541382 C-260.65646424 767.23624817 -262.890678 768.27439534 -265.125 769.3125 C-266.70147066 770.04030057 -268.27821657 770.76750519 -269.85522461 771.49414062 C-272.28983147 772.61596339 -274.72426969 773.73813406 -277.15782166 774.86224365 C-282.37309924 777.27048959 -287.59733253 779.65771774 -292.83203125 782.0234375 C-293.50564194 782.32791809 -294.17925262 782.63239868 -294.87327576 782.94610596 C-296.22208109 783.55571692 -297.57089189 784.16531579 -298.91970825 784.77490234 C-313.05936175 791.16992039 -327.11489071 797.73414142 -341.14588928 804.36366272 C-341.84411301 804.69353683 -342.54233673 805.02341095 -343.26171875 805.36328125 C-343.95385971 805.69029526 -344.64600067 806.01730927 -345.3591156 806.35423279 C-351.89037197 809.43685035 -358.44385697 812.47071607 -365 815.5 C-377.40691998 821.23766653 -389.74983394 827.10633095 -402.09088135 832.98394775 C-416.46874792 839.82985164 -430.88929105 846.57244033 -445.375 853.1875 C-445.375 850.1875 -445.375 850.1875 -444.125 848.609375 C-443.5475 848.05765625 -442.97 847.5059375 -442.375 846.9375 C-441.818125 846.39609375 -441.26125 845.8546875 -440.6875 845.296875 C-438.69403249 843.47850937 -436.66839602 841.71460434 -434.625 839.953125 C-430.34205648 836.21942933 -426.35201798 832.24219412 -422.375 828.1875 C-417.84521287 823.56924047 -413.24540516 819.1555272 -408.34375 814.93359375 C-405.03744565 812.00121668 -401.96780628 808.84166989 -398.875 805.6875 C-394.51127105 801.27664771 -390.14059026 796.98986042 -385.39453125 792.98828125 C-382.09541397 790.04651517 -379.02147634 786.87645884 -375.93676758 783.7121582 C-372.59143557 780.30770733 -369.08580652 777.15722094 -365.4765625 774.03515625 C-361.85255807 770.84899622 -358.37158097 767.51211797 -354.875 764.1875 C-350.05194848 759.60164774 -345.18527752 755.09759541 -340.15673828 750.73730469 C-337.92634958 748.79725159 -335.74421987 746.80699697 -333.5625 744.8125 C-330.09969918 741.68327173 -326.56820997 738.68249651 -322.9375 735.75 C-318.09558517 731.83263751 -313.48574555 727.71124519 -308.90234375 723.49609375 C-305.78710402 720.65048837 -302.59837157 717.90945822 -299.375 715.1875 C-302.69116525 711.2761256 -306.05395908 707.42254965 -309.5 703.625 C-311.12800623 701.81519974 -312.75277763 700.00248645 -314.375 698.1875 C-314.81585937 697.69427246 -315.25671875 697.20104492 -315.7109375 696.69287109 C-334.32188014 675.74898896 -350.4678423 652.49348707 -364.375 628.1875 C-364.79313965 627.46336914 -365.2112793 626.73923828 -365.64208984 625.99316406 C-383.28997454 595.2815953 -396.15978799 562.35411379 -405.375 528.1875 C-405.65182617 527.1680127 -405.92865234 526.14852539 -406.21386719 525.09814453 C-414.70633963 493.29491088 -417.94777113 461.01376395 -419.375 428.1875 C-581.075 428.1875 -742.775 428.1875 -909.375 428.1875 C-909.375 424.5575 -909.375 420.9275 -909.375 417.1875 C-891.552141 416.88387891 -873.72923203 416.58326721 -855.90628195 416.28504324 C-853.81904781 416.25010959 -851.73181429 416.21513907 -849.64458084 416.18016434 C-791.06488681 415.1990511 -791.06488681 415.1990511 -764.15625 414.8671875 C-762.80940471 414.8505433 -762.80940471 414.8505433 -761.43535042 414.83356285 C-754.04166293 414.74279624 -746.64795014 414.65457224 -739.25411987 414.57620239 C-738.13911181 414.56433694 -738.13911181 414.56433694 -737.00157833 414.55223179 C-735.02640113 414.53142639 -733.05121809 414.51117654 -731.07603455 414.49098206 C-729.48688082 414.47242525 -727.89773506 414.45318427 -726.30859375 414.43359375 C-725.09558531 414.41885702 -723.88257687 414.40412029 -722.63281059 414.388937 C-713.07638259 414.26561973 -703.52471887 414.05139215 -693.97108233 413.7932483 C-669.7188431 413.14434311 -645.46297616 412.74095472 -621.20554447 412.34408855 C-616.28964789 412.26344159 -611.37377042 412.18165905 -606.45789182 412.09992445 C-593.29221533 411.88109854 -580.12649581 411.66495627 -566.96075094 411.45029104 C-558.06672482 411.30526881 -549.17271105 411.15951229 -540.27870462 411.01328755 C-485.4107865 410.11143177 -430.54279592 409.21682126 -375.671875 408.515625 C-374.74566463 408.50378449 -373.81945426 408.49194398 -372.86517692 408.47974467 C-355.13115897 408.25358166 -337.39702649 408.03798677 -319.66271782 407.83590508 C-314.43740189 407.77633836 -309.21210429 407.71522232 -303.98680913 407.65386331 C-299.41573705 407.60046427 -294.84463343 407.55138835 -290.27349854 407.50360107 C-277.1798 407.35770218 -264.0954375 407.08554845 -251.00683594 406.70776367 C-229.72141914 406.09564544 -208.43324005 405.80188469 -187.14136481 405.51325035 C-181.56417025 405.4369941 -175.98702062 405.35758011 -170.40986633 405.27844238 C-157.48529366 405.09551058 -144.56067586 404.91591493 -131.63604736 404.73697662 C-115.19852181 404.50939513 -98.76100822 404.28106352 -82.32355911 404.04801702 C-76.81867164 403.97007721 -71.31377521 403.89301554 -65.80884361 403.81825256 C-43.33611665 403.51289619 -20.86957377 403.1376062 1.59753704 402.54518986 C16.19335771 402.16135368 30.78889021 401.89686575 45.38828421 401.68227315 C47.4781646 401.65139669 49.56803407 401.61985643 51.65790176 401.58813286 C61.41615143 401.44009104 71.17447942 401.29797667 80.93285179 401.15828228 C83.2612531 401.12483837 85.58964971 401.09108507 87.91804504 401.05722809 C136.48825725 400.35129327 185.04889602 399.86371804 233.625 400.1875 C230.50588341 402.78924069 227.49789687 404.94122163 223.87890625 406.78125 C222.97100342 407.24772949 222.06310059 407.71420898 221.12768555 408.19482422 C220.15742432 408.68740723 219.18716309 409.17999023 218.1875 409.6875 C210.34465664 413.72322807 202.54447837 417.81800747 194.8125 422.0625 C187.8923877 425.8604425 180.95652037 429.62545842 173.99755859 433.35180664 C163.72070453 438.85710175 153.50938706 444.45778283 143.37695312 450.22460938 C137.15022774 453.76747509 130.89794079 457.26000768 124.62719727 460.72436523 C111.91125403 467.75067073 99.31551684 474.95490275 86.79589844 482.32470703 C83.42304969 484.30613881 80.0441601 486.27706899 76.6640625 488.24609375 C52.75401872 502.18521808 29.11787709 516.55597129 5.625 531.1875 C4.65046875 531.79335938 3.6759375 532.39921875 2.671875 533.0234375 C-10.08982923 540.95901501 -22.80071099 548.95819267 -35.375 557.1875 C-36.46683594 557.90083496 -37.55867187 558.61416992 -38.68359375 559.34912109 C-53.50648553 569.03498193 -68.29834788 578.76782307 -83.04223633 588.57357788 C-84.45091149 589.51022984 -85.86007597 590.4461464 -87.26977539 591.3812561 C-94.57750033 596.23083419 -101.8005831 601.14808384 -108.86547852 606.34887695 C-112.8404987 609.26121055 -116.89108819 612.06318442 -120.9375 614.875 C-129.09323308 620.56261147 -137.17586454 626.34318041 -145.22265625 632.18359375 C-147.76124995 634.02504566 -150.30739327 635.85382884 -152.87109375 637.66015625 C-160.81500016 643.25967275 -168.55487073 649.09979313 -176.26904297 655.01171875 C-182.23433632 659.57713657 -188.24993932 664.06474528 -194.3125 668.5 C-201.56551202 673.81356465 -208.68201135 679.26822476 -215.71435547 684.86962891 C-217.39854155 686.20618234 -219.09038011 687.53237521 -220.78515625 688.85546875 C-227.72596268 694.27567448 -234.59136115 699.77960944 -241.41137695 705.35107422 C-245.70941729 708.855718 -250.05538128 712.28891934 -254.4375 715.6875 C-260.11467065 720.10262744 -265.56044938 724.74792584 -270.97192383 729.48339844 C-276.3394819 734.17817018 -281.82982245 738.7039912 -287.375 743.1875 C-289.43961398 744.87242996 -291.5009256 746.56134734 -293.5625 748.25 C-295.16666667 749.5625 -296.77083333 750.875 -298.375 752.1875 C-284.86010074 746.41025185 -271.44739727 740.42775015 -258.06658936 734.34777832 C-236.92789845 724.74455526 -215.69386676 715.38315636 -194.375 706.1875 C-193.5394458 705.82676392 -192.7038916 705.46602783 -191.84301758 705.09436035 C-101.86785771 666.25100688 -10.98421697 629.62700371 267.51953125 533.390625 C272.65452807 531.89820645 277.7623882 530.31699216 282.875 528.75 C292.84674072 525.70228163 302.84981792 522.78513544 312.88671875 519.95996094 C315.72812538 519.15840864 318.56722257 518.34899809 321.40625 517.5390625 C334.24292555 513.89314282 347.12940634 510.4702017 360.05761719 507.16625977 C367.10950553 505.36253894 374.14724277 503.517133 381.16772461 501.59399414 C419.54539766 491.08535131 458.43346163 482.29375782 497.53759766 474.96142578 C501.16636645 474.27790781 504.79058469 473.5723505 508.41423035 472.86222839 C527.29192495 469.16399421 546.10864419 465.89163912 565.20947266 463.55712891 C567.75960788 463.23656965 567.75960788 463.23656965 570.625 462.1875 C574.83997488 461.55709394 579.07845604 461.1088246 583.3125 460.625 C584.47201172 460.48642578 585.63152344 460.34785156 586.82617188 460.20507812 C592.80161784 459.51547293 598.61019978 459.01691997 604.625 459.1875 C584.44367745 433.05008513 559.15142624 410.86994954 525.39111328 405.85571289 C523.1378049 405.58384796 520.88374559 405.34701346 518.625 405.125 C517.90183594 405.04701172 517.17867187 404.96902344 516.43359375 404.88867188 C501.23397811 403.33270445 486.01806716 402.95428679 470.75 402.9375 C469.25619308 402.93399536 469.25619308 402.93399536 467.73220825 402.93041992 C449.24076382 402.91447668 430.85138337 403.82372059 412.39614868 404.90164185 C391.89088408 406.08037072 371.46998902 406.45110857 350.9375 406.375 C350.24348461 406.37243195 349.54946922 406.36986389 348.83442307 406.36721802 C340.43105347 406.33366617 332.02799268 406.27419229 323.625 406.1875 C326.1151466 403.66466769 328.53606729 401.39568447 331.42578125 399.33984375 C332.14830078 398.82260742 332.87082031 398.30537109 333.61523438 397.77246094 C334.38158203 397.22879883 335.14792969 396.68513672 335.9375 396.125 C337.55879723 394.96252332 339.17988774 393.79975828 340.80078125 392.63671875 C343.12363172 390.97529637 345.44701262 389.31462227 347.77099609 387.65478516 C378.17614668 365.88437427 399.10413927 333.97479692 406.0625 296.75 C407.83242195 281.5167392 408.92704327 264.91007424 399.8125 251.8125 C398.78016413 250.57829647 397.71813461 249.3681915 396.625 248.1875 C396.13515625 247.64480469 395.6453125 247.10210937 395.140625 246.54296875 C387.07823358 238.66018506 373.30735972 234.94090737 362.31793314 234.93269098 C361.61178151 234.92944038 360.90562987 234.92618978 360.1780797 234.92284068 C357.81324605 234.91438421 355.44866397 234.92011867 353.08382511 234.92578697 C351.36341516 234.92259895 349.64300664 234.91853608 347.9226006 234.91367769 C343.17843647 234.9028286 338.43434487 234.90444464 333.69017268 234.90802841 C328.53526321 234.90973159 323.38037397 234.89988039 318.22547287 234.89147437 C309.18552807 234.87833396 300.145602 234.8726155 291.10564804 234.87171364 C277.66351097 234.87033919 264.22140177 234.85756522 250.77927403 234.8424259 C228.16891262 234.8172851 205.55855478 234.80141884 182.94818306 234.79084396 C160.55549172 234.78034264 138.16280925 234.76571875 115.77012444 234.74556351 C114.72711858 234.74462753 114.72711858 234.74462753 113.6630419 234.74367265 C107.31224117 234.73797136 100.96144049 234.73221924 94.61063986 234.72640612 C78.82300477 234.71195575 63.03536915 234.69814298 47.24773312 234.68476295 C46.52878562 234.68415313 45.80983813 234.68354331 45.06910435 234.68291502 C10.09335475 234.65330383 -24.88239902 234.63103876 -59.8581543 234.609375 C-71.99607345 234.60185277 -84.13399258 234.59429806 -96.27191162 234.58660889 C-97.02470285 234.58613204 -97.77749407 234.58565519 -98.55309715 234.58516389 C-133.54612916 234.56295337 -168.53915651 234.53552553 -203.53218367 234.50675117 C-205.80385756 234.50488329 -208.07553145 234.50301767 -210.34720534 234.5011525 C-225.40166159 234.48878837 -240.45611776 234.47633431 -255.51057389 234.46382002 C-285.46540274 234.43892031 -315.42023202 234.41454908 -345.3750616 234.39054088 C-346.80160024 234.38939754 -348.22813887 234.38825382 -349.65467751 234.38710973 C-435.81305508 234.31801468 -521.97144022 234.26001178 -634.375 234.1875 C-634.375 227.5875 -634.375 220.9875 -634.375 214.1875 C-631.95108414 214.16466446 -629.52716827 214.14182892 -627.02980042 214.11830139 C-603.87209641 213.89994784 -580.71441389 213.67940964 -557.55674839 213.45700932 C-546.8245311 213.35398436 -536.09231201 213.25119785 -525.3600744 213.15030801 C-521.87108406 213.11749813 -518.38209525 213.08452815 -514.89310646 213.05155373 C-510.27912826 213.00799166 -505.66514349 212.96523803 -501.05115318 212.92297935 C-489.72118955 212.81803079 -478.39165307 212.69883959 -467.06216431 212.55093384 C-462.67964055 212.49517752 -458.29710224 212.44073939 -453.91455078 212.38720703 C-452.32284589 212.36747609 -452.32284589 212.36747609 -450.69898534 212.34734654 C-437.46266789 212.18954721 -424.24754405 212.2123256 -411.0132376 212.48532832 C-406.41001784 212.57189036 -401.80617491 212.61473979 -397.20234603 212.65538377 C-393.75749151 212.69075508 -390.32063268 212.75895046 -386.87884712 212.91197395 C-373.8674658 214.03419807 -373.8674658 214.03419807 -362.26382446 209.43028831 C-358.65532714 205.14712584 -356.33617314 200.45001627 -354.25867081 195.28016472 C-353.11899166 192.58123394 -351.60306792 190.2571764 -349.9140625 187.87109375 C-349.4298584 187.15904785 -348.9456543 186.44700195 -348.44677734 185.71337891 C-347.96934082 185.02421387 -347.4919043 184.33504883 -347 183.625 C-346.46455566 182.84817871 -345.92911133 182.07135742 -345.37744141 181.27099609 C-333.69152143 164.46630919 -320.7955448 148.76224478 -306.85791016 133.78808594 C-305.25416316 132.0570742 -303.66369009 130.3144376 -302.07421875 128.5703125 C-292.10792595 117.67066847 -292.10792595 117.67066847 -286.5078125 113.0078125 C-284.23854287 111.07103659 -282.07199592 109.03923033 -279.90234375 106.9921875 C-273.25466358 100.73739623 -266.31579415 95.02188576 -259.06298828 89.48583984 C-257.47507021 88.26447041 -255.90671572 87.01778576 -254.33984375 85.76953125 C-239.92446486 74.36743156 -224.35729198 64.25392386 -208.375 55.1875 C-207.53727051 54.70990234 -206.69954102 54.23230469 -205.83642578 53.74023438 C-181.40055906 39.90487321 -156.03098927 28.98586695 -129.375 20.1875 C-128.2828418 19.82672363 -127.19068359 19.46594727 -126.06542969 19.09423828 C-85.30993848 5.85694262 -42.78191243 -0.05322888 0 0 Z M53.625 30.1875 C56.012793 33.28846126 58.36844915 35.99661158 61.375 38.5 C65.05070046 41.63495495 68.43569589 44.97408843 71.8203125 48.41796875 C73.6797614 50.30762013 73.6797614 50.30762013 76.1875 52.1875 C79.07228333 54.5545017 81.32972762 57.22471295 83.74609375 60.05859375 C85.5841323 62.1411946 87.50496347 64.06842387 89.5 66 C93.39311482 69.8408081 96.80816784 73.96622559 100.2265625 78.23046875 C102.26078277 80.73845694 104.34523999 83.18879853 106.46289062 85.6262207 C136.9143261 120.85359586 162.46189279 163.93310727 179.625 207.1875 C189.4166511 207.21936568 199.20830583 207.23889666 209 207.25 C209.74933681 207.25085602 210.49867363 207.25171204 211.27071762 207.25259399 C238.82928688 207.28026616 266.38139827 207.04524588 293.9375 206.6875 C294.85897575 206.67554218 295.78045151 206.66358437 296.72985077 206.65126419 C308.02833757 206.50398159 319.32671383 206.34943687 330.625 206.1875 C329.52899999 204.4519883 328.43124128 202.71758717 327.33276367 200.98364258 C326.7216423 200.01767654 326.11052094 199.05171051 325.48088074 198.05647278 C322.78152147 193.88358165 319.89467946 189.8677643 316.9375 185.875 C316.33591064 185.0610376 315.73432129 184.2470752 315.11450195 183.40844727 C309.61067864 176.03744918 303.74762284 169.047925 297.625 162.1875 C296.88121094 161.34445313 296.13742187 160.50140625 295.37109375 159.6328125 C293.14375685 157.13064766 290.88991276 154.65571989 288.625 152.1875 C288.09084473 151.60291016 287.55668945 151.01832031 287.00634766 150.41601562 C278.24719354 140.73654027 278.24719354 140.73654027 268.65625 131.90625 C266.54478057 130.11962202 264.52973577 128.24520343 262.51318359 126.3527832 C256.12679092 120.37957921 249.43935775 114.91147412 242.48876953 109.60986328 C241.229036 108.64847901 239.97226732 107.68319923 238.71826172 106.71435547 C218.15814219 90.83004677 195.96641405 77.34263809 172.53466797 66.10986328 C170.63965806 65.19457979 168.75912358 64.25383161 166.87890625 63.30859375 C132.05294401 46.0557673 92.31357 34.00371949 53.625 30.1875 Z M-59.7109375 30.9375 C-60.82307617 31.12973145 -61.93521484 31.32196289 -63.08105469 31.52001953 C-98.5645633 37.97543027 -132.71349437 47.73972227 -165.375 63.1875 C-166.35903809 63.65269043 -167.34307617 64.11788086 -168.35693359 64.59716797 C-186.84988335 73.42623139 -204.54653295 83.48174812 -221.375 95.1875 C-222.99535156 96.30318359 -222.99535156 96.30318359 -224.6484375 97.44140625 C-233.92722092 103.90101888 -242.71934699 110.91945553 -251.375 118.1875 C-251.86841888 118.59833832 -252.36183777 119.00917664 -252.87020874 119.4324646 C-261.45727219 126.59617116 -269.59465146 134.0878804 -277.47241211 142.02416992 C-279.19748477 143.76004731 -280.93311991 145.4848509 -282.66992188 147.20898438 C-289.36358074 153.89474431 -295.5029399 160.76091022 -301.375 168.1875 C-302.23804193 169.21534093 -303.10644668 170.23875098 -303.984375 171.25390625 C-321.90036042 190.2790139 -321.90036042 190.2790139 -332.375 212.1875 C-315.96994808 212.07948028 -299.56493762 211.96659237 -283.15995789 211.84816074 C-275.54008312 211.79326025 -267.92020376 211.73985746 -260.30029297 211.69018555 C-253.64629593 211.64680611 -246.99232738 211.60040791 -240.33837509 211.55062145 C-236.82652515 211.52444411 -233.31467927 211.4996169 -229.80279541 211.47842598 C-212.9729402 211.37578173 -196.18490044 211.03650268 -179.375 210.1875 C-179.06923538 209.47618423 -178.76347076 208.76486847 -178.44844055 208.03199768 C-158.44380733 161.54592089 -133.08861884 117.19102543 -99.375 79.1875 C-98.14524445 77.77134449 -96.91598098 76.35476131 -95.6875 74.9375 C-94.58431648 73.68663224 -93.47999479 72.436768 -92.375 71.1875 C-91.75270508 70.48036865 -91.13041016 69.7732373 -90.48925781 69.04467773 C-84.95968782 62.82358986 -79.20457122 56.86158313 -73.30883789 50.9909668 C-71.80693075 49.49445075 -70.31048938 47.992617 -68.81445312 46.49023438 C-63.5072698 41.1797736 -58.12308482 36.02147171 -52.375 31.1875 C-55.12242364 29.81378818 -56.69197742 30.41564342 -59.7109375 30.9375 Z M13.625 33.1875 C13.625 91.2675 13.625 149.3475 13.625 209.1875 C33.445625 209.043125 53.26625 208.89875 73.6875 208.75 C79.92019775 208.70689697 86.15289551 208.66379395 92.57446289 208.61938477 C98.21581728 208.5760794 98.21581728 208.5760794 103.85716248 208.53160095 C106.34815805 208.51251991 108.83916724 208.49516579 111.33018494 208.47923279 C130.99987087 208.3834021 130.99987087 208.3834021 150.625 207.1875 C148.4555459 200.5292256 145.44774206 194.43652265 142.3125 188.1875 C141.847229 187.25827225 141.847229 187.25827225 141.37255859 186.31027222 C125.89681447 155.50176639 106.84733125 125.92247145 84.11328125 99.94677734 C82.99548465 98.62544494 81.90941644 97.27716654 80.83984375 95.91650391 C74.52465447 87.93200356 67.51952652 80.77652051 60.30566406 73.60742188 C58.25351459 71.56599623 56.21228579 69.51408861 54.171875 67.4609375 C46.95808845 60.2397225 39.65477812 53.4993729 31.625 47.1875 C30.37108642 46.13532307 29.12287183 45.07628262 27.8828125 44.0078125 C27.35429688 43.5540625 26.82578125 43.1003125 26.28125 42.6328125 C25.23538078 41.7310171 24.19118164 40.82728211 23.1484375 39.921875 C20.05767295 37.27483407 17.16201145 35.30970687 13.625 33.1875 Z M-17.796875 36.828125 C-18.48450928 37.39692383 -19.17214355 37.96572266 -19.88061523 38.55175781 C-20.62126221 39.17405273 -21.36190918 39.79634766 -22.125 40.4375 C-22.897229 41.08299805 -23.66945801 41.72849609 -24.46508789 42.39355469 C-26.04176174 43.71343968 -27.61671842 45.03537868 -29.18994141 46.359375 C-31.01212366 47.88390022 -32.84839406 49.38560614 -34.69921875 50.875 C-43.25246157 57.8561431 -51.01188072 65.64053023 -58.8125 73.4375 C-59.38120819 74.00521118 -59.94991638 74.57292236 -60.53585815 75.15783691 C-66.69571496 81.31891695 -72.77103779 87.50871921 -78.375 94.1875 C-78.90810791 94.81382324 -79.44121582 95.44014648 -79.99047852 96.08544922 C-125.854779 148.42709376 -125.854779 148.42709376 -150.375 210.1875 C-104.36117255 210.36413427 -58.39282936 209.77747217 -12.375 209.1875 C-12.375 151.4375 -12.375 93.6875 -12.375 34.1875 C-15.04757261 34.1875 -15.75634592 35.12893639 -17.796875 36.828125 Z M-392.375 428.1875 C-392.375 485.94988186 -378.77648638 555.58527043 -346.375 604.1875 C-343.55242055 604.63686803 -343.55242055 604.63686803 -340.17416382 604.54826355 C-339.53133725 604.55082682 -338.88851068 604.5533901 -338.22620451 604.55603105 C-336.06249805 604.56099024 -333.89948249 604.54444197 -331.73583984 604.52807617 C-330.18876665 604.52723036 -328.64169225 604.52770415 -327.09461975 604.52940369 C-322.88608995 604.53026685 -318.67781502 604.51258945 -314.46934462 604.49168181 C-310.07443491 604.47296826 -305.67951981 604.47116879 -301.28457642 604.46760559 C-292.95829256 604.45826943 -284.63212643 604.43363448 -276.30589449 604.40355712 C-266.82841504 604.37006189 -257.35093005 604.35353939 -247.87340617 604.33847082 C-228.37387063 604.30708624 -208.87444477 604.25429532 -189.375 604.1875 C-189.68563889 603.21430817 -189.99627777 602.24111633 -190.31632996 601.23843384 C-191.49465209 597.54275078 -192.66701903 593.84519898 -193.83781433 590.14712524 C-194.34030167 588.56268555 -194.84429208 586.97872157 -195.34996033 585.39529419 C-210.16226075 538.99294118 -217.77471364 491.102091 -219.78027344 442.50146484 C-219.81447891 441.69329315 -219.84868439 440.88512146 -219.88392639 440.05245972 C-219.94680248 438.53256161 -220.00532327 437.01247507 -220.05882263 435.49221802 C-220.15946856 431.71384902 -220.15946856 431.71384902 -221.375 428.1875 C-277.805 428.1875 -334.235 428.1875 -392.375 428.1875 Z M-194.375 428.1875 C-194.375 483.98602422 -186.77811519 553.38126961 -161.375 604.1875 C-155.55480898 604.8987717 -152.81577198 603.6034977 -148.17407227 600.125 C-147.43600342 599.5475 -146.69793457 598.97 -145.9375 598.375 C-144.33454268 597.16896388 -142.73035312 595.96456398 -141.125 594.76171875 C-139.92617188 593.85365479 -139.92617188 593.85365479 -138.703125 592.92724609 C-135.34533749 590.4180605 -131.90358295 588.04375344 -128.4375 585.6875 C-127.45656372 585.01775146 -127.45656372 585.01775146 -126.45581055 584.33447266 C-125.11218099 583.41735843 -123.76801904 582.50102375 -122.42333984 581.58544922 C-120.34705376 580.16842728 -118.27643111 578.74346286 -116.20703125 577.31640625 C-88.43013404 558.18706288 -60.23369566 539.6529476 -31.74609375 521.6015625 C-25.27376266 517.4875135 -18.82615721 513.33467249 -12.375 509.1875 C-12.375 482.4575 -12.375 455.7275 -12.375 428.1875 C-72.435 428.1875 -132.495 428.1875 -194.375 428.1875 Z M13.625 428.1875 C13.625 449.3075 13.625 470.4275 13.625 492.1875 C17.44158589 490.66086565 20.51988758 489.17565693 24 487.08984375 C25.0526001 486.46198975 26.1052002 485.83413574 27.18969727 485.18725586 C28.02707932 484.68450638 28.02707932 484.68450638 28.88137817 484.17160034 C31.27879972 482.73255997 33.68119874 481.30192554 36.08338928 479.87086487 C37.34739123 479.11784352 38.61117178 478.36445043 39.8747406 477.61070251 C46.62732737 473.58420114 53.40403574 469.59920961 60.1875 465.625 C60.78983459 465.27206879 61.39216919 464.91913757 62.01275635 464.55551147 C82.44818933 452.58655693 102.98271916 440.79618711 123.625 429.1875 C123.625 428.8575 123.625 428.5275 123.625 428.1875 C87.325 428.1875 51.025 428.1875 13.625 428.1875 Z M370.73510742 533.12695312 C369.94644287 533.33623947 369.15777832 533.54552582 368.34521484 533.76115417 C367.48234863 533.9946608 366.61948242 534.22816742 365.73046875 534.46875 C364.8170874 534.71341507 363.90370605 534.95808014 362.96264648 535.2101593 C359.91109512 536.03048372 356.86159909 536.85810905 353.8125 537.6875 C352.75358551 537.97483002 351.69467102 538.26216003 350.60366821 538.55819702 C315.26062082 548.16844455 280.1979799 558.73456319 245.25 569.6875 C243.71102554 570.16952377 243.71102554 570.16952377 242.14096069 570.6612854 C237.25393001 572.19475917 232.37319271 573.74429542 227.50097656 575.32421875 C223.34279196 576.66614868 219.16494337 577.8952502 214.95996094 579.08203125 C212.77270489 579.73149618 210.58552817 580.38122835 208.3984375 581.03125 C207.37835602 581.30005981 206.35827454 581.56886963 205.30728149 581.8458252 C199.94817752 583.46657726 199.94817752 583.46657726 196.14093018 587.35864258 C193.87205313 592.74398887 192.85929164 598.4951104 191.625 604.1875 C211.86098483 604.42111957 232.096696 604.59745119 252.33374977 604.70562172 C261.73028266 604.75718297 271.12597763 604.82747377 280.52197266 604.94189453 C288.71176343 605.04157905 296.90094744 605.10608425 305.09132802 605.12838495 C309.42833469 605.14142148 313.7636056 605.17204221 318.10005569 605.24480057 C322.18325863 605.31275392 326.26401405 605.33360431 330.34772873 605.31857681 C331.84502223 605.321325 333.34239863 605.34118269 334.83920288 605.37955475 C339.24835022 605.48703011 343.35867867 605.46467202 347.625 604.1875 C350.62064342 601.2027823 352.12238206 598.10082671 353.625 594.1875 C354.16616455 593.12587646 354.7073291 592.06425293 355.26489258 590.97045898 C356.6655121 587.8593339 358.06356488 584.74803484 359.4375 581.625 C359.95304443 580.45912354 360.46858887 579.29324707 360.99975586 578.09204102 C367.50970463 563.147857 373.08427675 547.84346848 377.625 532.1875 C374.98498206 532.1875 373.24154731 532.45672177 370.73510742 533.12695312 Z M157.61328125 598.5 C156.85595703 598.77070312 156.09863281 599.04140625 155.31835938 599.3203125 C154.13983398 599.74957031 154.13983398 599.74957031 152.9375 600.1875 C152.14021484 600.47367188 151.34292969 600.75984375 150.52148438 601.0546875 C148.55446666 601.76140045 146.58952901 602.47389811 144.625 603.1875 C144.625 603.5175 144.625 603.8475 144.625 604.1875 C150.565 604.1875 156.505 604.1875 162.625 604.1875 C164.8486068 600.4856424 164.8486068 600.4856424 164.625 597.1875 C161.76684149 597.1875 160.24677971 597.54956447 157.61328125 598.5 Z M-331.375 630.1875 C-315.91156098 654.48718988 -298.10106503 676.25241808 -278.375 697.1875 C-273.75914078 695.72581125 -270.65407553 693.05847581 -267.125 689.875 C-261.90300698 685.27905988 -256.55463631 680.93743905 -251 676.75 C-245.26072393 672.41968596 -239.62079663 667.99798273 -234.0625 663.4375 C-228.75509049 659.09072204 -223.38520295 654.87302133 -217.87109375 650.7890625 C-212.96479733 647.15264876 -208.11052819 643.44720608 -203.25 639.75 C-202.31196533 639.0386792 -201.37393066 638.3273584 -200.4074707 637.59448242 C-199.52792725 636.92521729 -198.64838379 636.25595215 -197.7421875 635.56640625 C-196.94925293 634.9638501 -196.15631836 634.36129395 -195.33935547 633.74047852 C-193.30031071 632.19025419 -193.30031071 632.19025419 -191.375 630.1875 C-237.575 630.1875 -283.775 630.1875 -331.375 630.1875 Z M30.74682617 644.15112305 C25.21471883 646.88424555 19.38414099 648.97244577 13.625 651.1875 C13.625 702.3375 13.625 753.4875 13.625 806.1875 C33.86779369 792.6923042 54.14912422 774.99203326 69.9375 756.4375 C72.68298122 753.24564878 75.51089615 750.14831173 78.375 747.0625 C84.15725025 740.71250615 89.41366046 734.00897592 94.625 727.1875 C95.36435791 726.22553711 95.36435791 726.22553711 96.11865234 725.24414062 C111.8633001 704.72393712 125.28835288 682.90276161 137.625 660.1875 C137.99254395 659.51557617 138.36008789 658.84365234 138.73876953 658.15136719 C147.2684766 644.66976154 147.2684766 644.66976154 151.625 630.1875 C89.35841879 626.34971365 89.35841879 626.34971365 30.74682617 644.15112305 Z M180.625 630.1875 C177.655 636.7875 174.685 643.3875 171.625 650.1875 C156.89902936 682.45470037 138.35430692 713.13625187 116.625 741.1875 C116.19477539 741.74775879 115.76455078 742.30801758 115.32128906 742.88525391 C109.3814192 750.61467292 103.22485638 758.00604708 96.625 765.1875 C95.49560071 766.47532181 94.370415 767.76685422 93.25 769.0625 C81.70592803 782.28232435 69.71244975 794.91382328 56.125 806.0625 C55.3 806.76375 54.475 807.465 53.625 808.1875 C53.625 808.5175 53.625 808.8475 53.625 809.1875 C61.99133065 808.63850592 70.05064132 807.28579818 78.25 805.5625 C79.51690674 805.29671143 80.78381348 805.03092285 82.08911133 804.75708008 C112.43054742 798.24058218 141.52136061 788.32196187 169.625 775.1875 C170.49286133 774.78450684 171.36072266 774.38151367 172.25488281 773.96630859 C193.22907741 764.13388768 213.01796842 751.95688696 231.625 738.1875 C233.03893823 737.15607963 234.45300266 736.12483223 235.8671875 735.09375 C243.49773334 729.48997156 250.69636764 723.65171316 257.625 717.1875 C258.9532573 716.0150575 260.28641541 714.84813783 261.625 713.6875 C262.95882798 712.52139889 264.29214039 711.35470784 265.625 710.1875 C266.74455078 709.20910156 266.74455078 709.20910156 267.88671875 708.2109375 C277.74132182 699.48302818 287.12259804 690.24235752 295.625 680.1875 C296.89150391 678.75470703 296.89150391 678.75470703 298.18359375 677.29296875 C319.67108389 655.52233578 319.67108389 655.52233578 332.625 630.1875 C282.465 630.1875 232.305 630.1875 180.625 630.1875 Z M-19.53857422 664.15258789 C-20.62461945 664.58515396 -21.71066467 665.01772003 -22.82962036 665.46339417 C-24.01764252 665.94082565 -25.20566467 666.41825714 -26.4296875 666.91015625 C-27.67526796 667.40815392 -28.92094657 667.90590617 -30.16671753 668.40342712 C-33.50643807 669.73846457 -36.84423763 671.07824183 -40.18156433 672.41925049 C-42.24192843 673.2467582 -44.30282007 674.07293766 -46.3638916 674.89868164 C-67.77746013 683.4789047 -89.1316878 692.19282236 -110.375 701.1875 C-108.75553606 705.45954198 -106.62238282 708.95108609 -103.9375 712.625 C-103.49720459 713.23335693 -103.05690918 713.84171387 -102.60327148 714.46850586 C-91.71575935 729.39923799 -79.87388547 743.58234672 -67.375 757.1875 C-66.83939453 757.77354004 -66.30378906 758.35958008 -65.75195312 758.96337891 C-57.02720255 768.60662375 -57.02720255 768.60662375 -47.47265625 777.40234375 C-45.21335326 779.32506529 -43.0603462 781.34655836 -40.90283203 783.38208008 C-31.97034515 791.78811759 -22.58841844 799.37855438 -12.375 806.1875 C-12.375 758.6675 -12.375 711.1475 -12.375 662.1875 C-15.09100862 662.1875 -17.01215777 663.14210943 -19.53857422 664.15258789 Z M-139.45936584 712.86639404 C-140.32105881 713.24402893 -141.18275177 713.62166382 -142.07055664 714.01074219 C-143.05081314 714.43579041 -144.03106964 714.86083862 -145.04103088 715.29876709 C-146.11159225 715.7725177 -147.18215363 716.24626831 -148.28515625 716.734375 C-149.95655922 717.46312836 -149.95655922 717.46312836 -151.66172791 718.206604 C-155.25690129 719.77625646 -158.84719975 721.35673748 -162.4375 722.9375 C-164.76987206 723.95774077 -167.10255122 724.97727977 -169.43554688 725.99609375 C-174.08665969 728.02868509 -178.73423302 730.06908113 -183.37939453 732.11523438 C-188.13299691 734.20785055 -192.89490264 736.27985342 -197.66357422 738.33789062 C-198.82304062 738.84080627 -199.98250702 739.34372192 -201.17710876 739.86187744 C-203.38888215 740.82092571 -205.60280697 741.77503131 -207.81910706 742.72357178 C-209.29008095 743.36362152 -209.29008095 743.36362152 -210.79077148 744.01660156 C-212.08723854 744.57519867 -212.08723854 744.57519867 -213.40989685 745.14508057 C-215.53842251 746.0305379 -215.53842251 746.0305379 -216.375 748.1875 C-168.67257809 777.19958715 -119.0439654 798.60166625 -63.75 808.1875 C-63.04045166 808.31229736 -62.33090332 808.43709473 -61.59985352 808.56567383 C-58.2690773 809.09364749 -55.57990242 809.35883489 -52.375 808.1875 C-53.69531588 806.96874688 -55.01566952 805.75003463 -56.33618164 804.53149414 C-57.50395859 803.45322859 -58.67109617 802.37427024 -59.83764648 801.29467773 C-62.7812131 798.57224257 -65.73172733 795.85920222 -68.7109375 793.17578125 C-75.87439488 786.69820979 -82.52995415 779.91480225 -88.98144531 772.72949219 C-90.29342588 771.27776317 -91.62654015 769.84521374 -92.9609375 768.4140625 C-98.99188751 761.92651059 -104.49997226 755.13813066 -109.88916016 748.11914062 C-111.44291462 746.09920877 -113.00806483 744.0884543 -114.57421875 742.078125 C-120.6381527 734.25851038 -126.47222258 726.3445197 -131.94921875 718.10009766 C-134.6572333 713.18667535 -134.6572333 713.18667535 -139.45936584 712.86639404 Z " fill="#EC4B0B" transform="translate(909.375,-0.1875)"/>
<path d="M0 0 C0 8.91 0 17.82 0 27 C-326.7 27 -653.4 27 -990 27 C-990 23.7 -990 20.4 -990 17 C-975.22071429 16.37760535 -960.45621123 15.91980859 -945.6640625 15.7890625 C-944.57474206 15.77927935 -944.57474206 15.77927935 -943.46341515 15.76929855 C-940.36348144 15.74184927 -937.26354138 15.71529359 -934.16359234 15.68963432 C-904.92433577 15.44648681 -875.69038883 15.01076421 -846.45703125 14.375 C-845.45125695 14.35314711 -845.45125695 14.35314711 -844.42516398 14.33085275 C-834.4972611 14.11487781 -824.56945386 13.89461122 -814.64165354 13.67398119 C-772.05970533 12.72771567 -729.47790328 11.87772948 -686.890625 11.20703125 C-685.86265973 11.19081254 -684.83469447 11.17459383 -683.77557874 11.15788364 C-663.32800315 10.83550197 -642.88031727 10.52071481 -622.43243039 10.21870512 C-611.96923161 10.06409338 -601.50607894 9.90658878 -591.04296875 9.74609375 C-590.11525854 9.73190077 -589.18754833 9.71770778 -588.23172569 9.70308471 C-559.73856117 9.26560394 -531.25341065 8.65186094 -502.76662302 7.91073418 C-478.37816053 7.27645485 -453.99200978 6.74790184 -429.59765625 6.40234375 C-428.87353161 6.39206642 -428.14940696 6.38178909 -427.40333915 6.37120032 C-418.0617389 6.23919814 -408.72003831 6.11529656 -399.3782959 5.99383545 C-387.03283947 5.83310739 -374.68747966 5.66491948 -362.34215856 5.4941411 C-360.93093291 5.47463408 -359.51970648 5.45518375 -358.10847926 5.43579054 C-340.4476002 5.19295756 -322.7903572 4.89649367 -305.13359833 4.44105339 C-289.57604057 4.04020258 -274.0176074 3.75658195 -258.45703125 3.5 C-257.21130655 3.47938066 -255.96558186 3.45876133 -254.68210793 3.43751717 C-244.43148533 3.26825618 -234.18080639 3.10251923 -223.93011475 2.9375 C-215.00155326 2.79367897 -206.07301993 2.64827596 -197.14453125 2.5 C-195.91051134 2.4795204 -194.67649143 2.45904079 -193.40507698 2.4379406 C-176.65705895 2.15744614 -159.91329741 1.79985007 -143.16915894 1.34547424 C-128.61417721 0.95147445 -114.05909073 0.67910691 -99.50028992 0.46757126 C-97.38572287 0.4367452 -95.27116975 0.40505979 -93.15661621 0.37332153 C-62.10385197 -0.08760187 -31.05546777 -0.097727 0 0 Z " fill="#EC4D0D" transform="translate(1068,356)"/>
<path d="M0 0 C0 9.24 0 18.48 0 28 C-287.43 28 -574.86 28 -871 28 C-871 24.37 -871 20.74 -871 17 C-847.91361709 16.4917992 -824.82715254 15.98745122 -801.74059582 15.48720646 C-791.01135222 15.25464098 -780.28213486 15.02098282 -769.55297852 14.78442383 C-757.1122182 14.5102737 -744.67138567 14.23960671 -732.23046875 13.97265625 C-730.69559445 13.93966832 -730.69559445 13.93966832 -729.12971258 13.90601397 C-697.80642307 13.23418377 -666.48362743 12.68692746 -635.15470266 12.36135197 C-622.35738458 12.22773722 -609.56896696 12.08003677 -596.78125 11.52929688 C-578.13324157 10.72992014 -559.46828454 10.49623815 -540.80749345 10.15780902 C-535.14072253 10.05438206 -529.47401092 9.94780787 -523.80729675 9.84132385 C-521.43293477 9.79672851 -519.05857278 9.75213375 -516.68421078 9.70753956 C-514.89098521 9.67384925 -514.89098521 9.67384925 -513.06153286 9.63947833 C-509.3627583 9.57010411 -505.66397772 9.50105853 -501.96519566 9.43208599 C-475.76860948 8.94300569 -449.57257864 8.42607544 -423.37656021 7.90766525 C-415.17177516 7.74530249 -406.9669772 7.58359823 -398.76217651 7.42202759 C-397.38461657 7.3948973 -396.00705663 7.36776666 -394.62949669 7.34063566 C-392.55878566 7.29985344 -390.48807463 7.2590715 -388.41736356 7.2182911 C-380.79736505 7.06821959 -373.17736842 6.9180527 -365.55737305 6.76782227 C-364.52529601 6.74747496 -364.52529601 6.74747496 -363.47236894 6.72671659 C-352.22018692 6.5048626 -340.96801631 6.28243353 -329.7158486 6.05985474 C-317.84827614 5.82512158 -305.98068796 5.59119427 -294.11308688 5.3579126 C-287.57394919 5.22934884 -281.03481869 5.10043864 -274.49570656 4.97057915 C-246.98015971 4.42433291 -219.46445873 3.91671324 -191.94702148 3.47705078 C-172.45719315 3.16549519 -152.96997846 2.82500822 -133.48365021 2.33868217 C-129.49597517 2.23937877 -125.50822631 2.1435901 -121.52044678 2.04859924 C-110.9560315 1.79639882 -100.39173224 1.53950494 -89.82750368 1.27960455 C-80.72364728 1.0557105 -71.61971196 0.83541988 -62.515625 0.62109375 C-61.84992682 0.60538692 -61.18422863 0.58968009 -60.49835777 0.5734973 C-40.3231607 0.09921297 -20.18084595 -0.14450793 0 0 Z " fill="#EC4F10" transform="translate(1013,303)"/>
<path d="M0 0 C0 8.91 0 17.82 0 27 C-241.89 27 -483.78 27 -733 27 C-733 23.37 -733 19.74 -733 16 C-723.89747785 15.77199698 -714.79491158 15.54583498 -705.6923027 15.32132149 C-701.45305343 15.2167184 -697.21381471 15.11174132 -692.97460938 15.00537109 C-672.93854617 14.50307894 -652.90179938 14.03655081 -632.86401367 13.60864258 C-631.18189586 13.57269028 -629.49977808 13.53673641 -627.81766033 13.50078106 C-626.53238157 13.47331282 -626.53238157 13.47331282 -625.22113758 13.44528967 C-579.87367848 12.47606916 -534.5280741 11.43802901 -489.18295735 10.36566663 C-486.77002872 10.30860551 -484.35709965 10.25156302 -481.94417048 10.19452477 C-458.91114818 9.65001866 -435.87816879 9.10370741 -412.84519958 8.55696106 C-404.40843818 8.35669458 -395.97167568 8.15647408 -387.53491211 7.95629883 C-386.28201855 7.92657165 -386.28201855 7.92657165 -385.00381402 7.89624392 C-370.92637386 7.56225186 -356.84891848 7.22890502 -342.77145308 6.89597851 C-334.97160909 6.71148723 -327.17177307 6.5266718 -319.37195778 6.34097099 C-311.39967629 6.15117317 -303.42737941 5.96203528 -295.45506285 5.77371593 C-294.06688526 5.74091536 -292.67870834 5.70808596 -291.29053213 5.67522721 C-271.51507912 5.20719499 -251.73909461 4.78908171 -231.96183038 4.40559459 C-219.77018267 4.16699087 -207.58968167 3.85490954 -195.40543938 3.35798073 C-181.97480262 2.81670031 -168.53614477 2.56903247 -155.09797883 2.29281878 C-152.00117298 2.22896101 -148.90439394 2.1638464 -145.8076126 2.09881264 C-138.46594106 1.94472077 -131.12422245 1.79303981 -123.7824707 1.64282227 C-117.15903028 1.50725412 -110.53566555 1.3685065 -103.91235352 1.22680664 C-33.61212499 -0.27597913 -33.61212499 -0.27597913 0 0 Z " fill="#EC4B0B" transform="translate(937,251)"/>
<path d="M0 0 C12.21 0 24.42 0 37 0 C41.7549862 6.53810602 46.42461754 12.99714477 50.828125 19.75390625 C51.60080719 20.93169899 51.60080719 20.93169899 52.38909912 22.13328552 C54.01197837 24.60801229 55.63117547 27.08511944 57.25 29.5625 C58.85526559 32.01440505 60.46134948 34.46577055 62.0680542 36.91673279 C63.05769247 38.426877 64.04646548 39.93758894 65.03399658 41.44911194 C70.63316998 50.00431707 76.32765249 58.49147874 82 67 C82.33 44.89 82.66 22.78 83 0 C95.54 0 108.08 0 121 0 C121 42.57 121 85.14 121 129 C108.46 129 95.92 129 83 129 C77.88818471 121.97125398 72.906159 114.98215216 68.15625 107.72265625 C67.54285767 106.79005478 66.92946533 105.85745331 66.29748535 104.89659119 C64.36248102 101.95353356 62.43111227 99.00811253 60.5 96.0625 C58.5680832 93.12099305 56.63540975 90.17998465 54.70251465 87.23912048 C53.5084939 85.42186944 52.31515729 83.6041686 51.12268066 81.78590393 C46.78026373 75.16854758 42.39077688 68.58616531 38 62 C37.67 84.11 37.34 106.22 37 129 C24.79 129 12.58 129 0 129 C0 86.43 0 43.86 0 0 Z " fill="#696967" transform="translate(963,953)"/>
<path d="M0 0 C37 0 37 0 46.5703125 8.80859375 C48.70117188 11.80847168 48.70117188 11.80847168 50.0234375 14.45507812 C50.79252441 15.9314978 50.79252441 15.9314978 51.57714844 17.43774414 C52.08793945 18.42766357 52.59873047 19.41758301 53.125 20.4375 C54.24777264 22.37262594 55.38318854 24.30047249 56.53125 26.22070312 C58.75429537 29.97789241 60.90104384 33.76347868 62.98925781 37.59716797 C66.52685738 44.04334277 70.50242083 50.16522329 74.55810547 56.29321289 C77.10186049 60.15462386 79.54929589 64.07887342 82 68 C82.33 45.56 82.66 23.12 83 0 C95.21 0 107.42 0 120 0 C120 42.57 120 85.14 120 129 C82 129 82 129 72.47265625 120.18359375 C70.3717041 117.15979004 70.3717041 117.15979004 69.08398438 114.48242188 C68.58342529 113.48654053 68.08286621 112.49065918 67.56713867 111.46459961 C67.07060791 110.46565674 66.57407715 109.46671387 66.0625 108.4375 C64.97877394 106.50486331 63.88175815 104.57961788 62.77148438 102.66210938 C59.44116504 96.81581166 56.22091463 90.90727795 53 85 C48.05 77.41 43.1 69.82 38 62 C37.67 84.11 37.34 106.22 37 129 C24.79 129 12.58 129 0 129 C0 86.43 0 43.86 0 0 Z " fill="#696967" transform="translate(536,953)"/>
<path d="M0 0 C17.1703125 -0.0928125 17.1703125 -0.0928125 34.6875 -0.1875 C38.27584717 -0.21481201 41.86419434 -0.24212402 45.5612793 -0.27026367 C50.00939941 -0.28381348 50.00939941 -0.28381348 52.10456848 -0.28633118 C53.53985908 -0.29087936 54.97513965 -0.30130577 56.41035461 -0.31672668 C72.73452296 -0.48305737 87.4964161 1.61243157 99.8125 13.25 C114.2577593 28.75097343 117.41481556 49.19459484 116.9765625 69.64575195 C116.22941109 88.3442936 111.80483595 104.55970499 97.7265625 117.80859375 C84.79954935 128.19835647 69.36251746 129.4668508 53.41796875 129.29296875 C52.04122281 129.2885429 50.66447176 129.28549164 49.28771973 129.28381348 C44.2542348 129.26825857 39.22085883 129.22637605 34.1875 129.1875 C22.905625 129.125625 11.62375 129.06375 0 129 C0 86.43 0 43.86 0 0 Z M40 30 C40 52.77 40 75.54 40 99 C56.2280877 100.05684194 56.2280877 100.05684194 69.75 93.9375 C75.02032893 87.05679279 76.70784895 79.52318936 77 71 C77.03996094 70.06285156 77.07992187 69.12570312 77.12109375 68.16015625 C77.36541133 57.22335149 77.10372371 44.78697636 69.4296875 36.25390625 C60.88242595 28.26240834 51.75517908 30 40 30 Z " fill="#696967" transform="translate(681,953)"/>
<path d="M0 0 C12.35884297 10.37676438 18.65983188 25.10376573 20.65625 40.90234375 C22.43131346 63.60836382 20.2363599 85.51275349 4.9375 103.5 C-4.76048448 113.93980792 -17.63562979 119.65587121 -31.78686523 120.80151367 C-35.13553291 120.91433856 -38.46618224 120.96712592 -41.81567383 120.94604492 C-43.8631726 120.93754908 -45.90785345 120.96639256 -47.95507812 120.99804688 C-64.29533155 121.08512272 -79.98451935 116.85987975 -92.22265625 105.47265625 C-107.53576601 89.05414154 -110.83679906 68.70591302 -110.19873047 47.05517578 C-109.39311731 31.94487594 -104.53686929 18.32748062 -95.0625 6.5 C-94.56363281 5.87480469 -94.06476562 5.24960937 -93.55078125 4.60546875 C-71.34448142 -20.17385323 -25.20902858 -18.37595345 0 0 Z M-62.90625 25.484375 C-69.15686496 34.12493097 -70.56327539 43.49115494 -70.4375 53.9375 C-70.44910156 54.89720703 -70.46070313 55.85691406 -70.47265625 56.84570312 C-70.4318827 66.93715691 -68.71408251 76.65110539 -61.49609375 84.12109375 C-55.85443815 89.38411475 -50.03724456 90.94943885 -42.3984375 90.75390625 C-36.20867639 90.08110613 -30.39493569 88.07312656 -26.0625 83.5 C-19.60758012 74.31632391 -18.7115821 64.47215107 -18.75 53.5 C-18.73388672 52.57960938 -18.71777344 51.65921875 -18.70117188 50.7109375 C-18.69408471 40.64716764 -21.06672601 31.02934998 -28.0625 23.5 C-34.10749348 18.81293983 -40.33925775 17.68099947 -47.87890625 18.02734375 C-53.94702261 18.92825428 -58.69371639 20.95054645 -62.90625 25.484375 Z " fill="#696967" transform="translate(922.0625,963.5)"/>
<path d="M0 0 C12.65816832 10.62099436 18.88556996 26.01810677 20.75 42.1875 C21.8981955 63.67452407 20.16426372 85.04240897 5.75 102.1875 C-4.41192051 113.07275166 -17.10136144 119.28426735 -31.97460938 120.48925781 C-35.32317333 120.60187768 -38.65378799 120.65462525 -42.00317383 120.63354492 C-44.0506726 120.62504908 -46.09535345 120.65389256 -48.14257812 120.68554688 C-63.27030135 120.76638922 -79.15493876 117.30499016 -90.72265625 106.84375 C-106.43602142 89.80419288 -111.11990704 70.14844438 -110.38623047 47.57763672 C-109.50537954 32.1232808 -105.00565063 18.36612268 -95.25 6.1875 C-94.75113281 5.56230469 -94.25226563 4.93710937 -93.73828125 4.29296875 C-71.56099173 -20.45398152 -24.94000583 -18.90852074 0 0 Z M-64.25 27.1875 C-72.14100872 38.91128439 -72.20484903 55.68315837 -69.59765625 69.2265625 C-67.4545174 77.08167229 -64.07175534 83.38545344 -56.890625 87.55859375 C-48.83287181 91.17457305 -41.55286729 91.25421487 -33.3203125 88.15625 C-26.81589573 85.11267385 -23.74916174 80.62237144 -21.25 74.1875 C-16.87046358 59.55790828 -17.04439856 40.86724416 -24.27734375 27.25390625 C-27.57041672 22.55453878 -32.9193397 19.88493248 -38.25 18.1875 C-49.01986232 16.70244704 -57.17489067 18.73667497 -64.25 27.1875 Z " fill="#696967" transform="translate(242.25,963.8125)"/>
<path d="M0 0 C34.65 0 69.3 0 105 0 C105 9.24 105 18.48 105 28 C83.55 28 62.1 28 40 28 C40 34.6 40 41.2 40 48 C59.8 48 79.6 48 100 48 C100 56.91 100 65.82 100 75 C80.2 75 60.4 75 40 75 C40 82.92 40 90.84 40 99 C62.11 99 84.22 99 107 99 C107 108.9 107 118.8 107 129 C71.69 129 36.38 129 0 129 C0 86.43 0 43.86 0 0 Z " fill="#696967" transform="translate(1108,953)"/>
<path d="M0 0 C0.99620865 0.00081573 0.99620865 0.00081573 2.01254272 0.00164795 C17.20777821 0.05894435 30.01948629 1.69818971 41.4921875 12.41015625 C49.30764021 20.5262033 51.41942873 28.41990375 52.3125 39.375 C48.02130631 39.71461036 43.72948339 40.0455324 39.4375 40.375 C37.63152344 40.51808594 37.63152344 40.51808594 35.7890625 40.6640625 C28.94678483 41.18467058 22.17471524 41.51767384 15.3125 41.375 C15.05678223 40.73522217 14.80106445 40.09544434 14.53759766 39.4362793 C12.51858756 34.46113163 10.55250842 30.85398126 6.3125 27.375 C3.02157406 26.27802469 0.40137841 26.1378017 -3.0625 26.0625 C-4.18398437 26.02511719 -5.30546875 25.98773437 -6.4609375 25.94921875 C-10.34989327 26.46241025 -11.93673556 27.63425656 -14.6875 30.375 C-15.72958903 33.15390408 -15.95398875 34.59018638 -14.99926758 37.40185547 C-13.24832998 40.03559411 -11.74100882 40.45230503 -8.76171875 41.4453125 C-7.77220215 41.77563477 -6.78268555 42.10595703 -5.76318359 42.44628906 C-1.04384564 43.87130586 3.71131313 45.08324663 8.5 46.25 C35.40385325 53.07995902 35.40385325 53.07995902 44.3125 61.375 C45.199375 62.15875 46.08625 62.9425 47 63.75 C55.90190245 73.85486224 57.1198147 84.24962559 56.3125 97.375 C54.78036161 107.62639866 48.70117595 117.32985108 40.67578125 123.8125 C28.33734901 131.97014115 16.33319285 133.74874933 1.93115234 133.74560547 C-0.28758182 133.74995119 -2.50427588 133.78628509 -4.72265625 133.82421875 C-19.18083884 133.93841415 -33.47327361 131.59408994 -44.640625 121.6328125 C-52.22737699 113.68321585 -57.72394625 102.46635725 -57.8125 91.375 C-57.750625 89.89 -57.750625 89.89 -57.6875 88.375 C-53.52638416 87.4195882 -49.45768228 87.0943336 -45.19921875 86.83984375 C-44.1444207 86.77537804 -44.1444207 86.77537804 -43.0683136 86.70960999 C-40.83739032 86.57400451 -38.60621657 86.44318176 -36.375 86.3125 C-34.8561007 86.22101955 -33.33722022 86.129226 -31.81835938 86.03710938 C-28.10828388 85.81278187 -24.39796856 85.59274083 -20.6875 85.375 C-20.48616455 85.98698242 -20.2848291 86.59896484 -20.07739258 87.22949219 C-19.67750122 88.43847168 -19.67750122 88.43847168 -19.26953125 89.671875 C-19.0063208 90.46948242 -18.74311035 91.26708984 -18.47192383 92.08886719 C-16.34044882 98.3008597 -13.91294659 101.56477853 -8.6875 105.375 C-2.91987166 107.29754278 4.63209598 107.54603764 10.4609375 105.69140625 C14.1218864 103.45209487 15.96124848 100.34926918 17.3125 96.375 C17.3125 92.53919828 16.65351405 90.83701904 14.375 87.75 C7.5042518 82.42166466 -1.26065579 80.54738511 -9.5625 78.4375 C-25.71945253 74.1588721 -41.89255415 68.72620483 -50.81640625 53.44140625 C-54.96756378 43.79547982 -54.349856 33.02544171 -50.6875 23.375 C-45.67867206 13.38845485 -38.20085063 7.57752331 -28.0078125 3.41796875 C-18.68716831 0.49018993 -9.74390465 -0.01341548 0 0 Z " fill="#696967" transform="translate(1285.6875,950.625)"/>
<path d="M0 0 C7.79809469 6.46316661 11.90267494 15.24708501 12.91015625 25.23046875 C13.04734868 26.78987512 13.18074968 28.3496405 13.3046875 29.91015625 C9.01349381 30.24976661 4.72167089 30.58068865 0.4296875 30.91015625 C-1.37628906 31.05324219 -1.37628906 31.05324219 -3.21875 31.19921875 C-10.06102767 31.71982683 -16.83309726 32.05283009 -23.6953125 31.91015625 C-24.04142578 30.89695312 -24.04142578 30.89695312 -24.39453125 29.86328125 C-26.99451229 22.74128659 -26.99451229 22.74128659 -32.6953125 17.91015625 C-35.98623844 16.81318094 -38.60643409 16.67295795 -42.0703125 16.59765625 C-43.19179688 16.56027344 -44.31328125 16.52289062 -45.46875 16.484375 C-49.35725503 16.99750702 -50.94713215 18.16699082 -53.6953125 20.91015625 C-54.60567153 23.51118204 -54.72635502 25.36691222 -54.5703125 28.09765625 C-53.82790808 30.1211479 -53.82790808 30.1211479 -51.56201172 30.91503906 C-48.3873148 32.01707148 -45.21861828 32.84972672 -41.953125 33.64453125 C-40.6329701 33.97067521 -39.31298913 34.29752386 -37.99316406 34.625 C-37.31064575 34.79370605 -36.62812744 34.96241211 -35.92492676 35.13623047 C3.28041533 44.89606622 3.28041533 44.89606622 13.0859375 60.44140625 C16.29069737 66.93309932 17.84081794 72.45296644 17.7421875 79.72265625 C17.73461426 80.51019287 17.72704102 81.29772949 17.71923828 82.10913086 C17.40511953 93.28098201 13.12305295 102.69052422 5.4921875 110.84765625 C-6.5064647 122.07220185 -21.44016956 124.44952217 -37.30297852 124.35620117 C-39.49526544 124.34770488 -41.68492232 124.37654128 -43.87695312 124.40820312 C-57.12854068 124.47401904 -71.10941191 122.60705338 -81.6953125 113.91015625 C-90.04471961 105.51649433 -96.57768201 93.75383025 -96.73828125 81.6796875 C-96.72410156 80.76574219 -96.70992188 79.85179687 -96.6953125 78.91015625 C-84.03798582 77.62969926 -71.40222808 76.54300395 -58.6953125 75.91015625 C-58.60894531 76.46703125 -58.52257812 77.02390625 -58.43359375 77.59765625 C-57.05902114 85.06322494 -54.59565424 90.4417803 -48.7578125 95.41015625 C-43.23136251 98.13686285 -36.65449184 97.61754085 -30.6953125 96.91015625 C-27.07349819 95.66971802 -25.20593831 93.51961287 -22.7578125 90.59765625 C-21.28828825 86.88062433 -21.60221523 84.73599668 -22.6953125 80.91015625 C-28.36613625 73.04417492 -39.52891428 71.28339225 -48.4453125 69.03515625 C-64.39124027 64.82052117 -79.68623024 59.72316651 -88.6953125 44.91015625 C-92.99625485 36.88173053 -93.04477998 26.7197281 -91.00390625 17.93359375 C-87.32490367 7.98951145 -80.94537668 1.0145334 -71.6953125 -4.08984375 C-50.81610971 -12.76759806 -18.96924803 -13.25595819 0 0 Z " fill="#696967" transform="translate(372.6953125,960.08984375)"/>
<path d="M0 0 C14.52 0 29.04 0 44 0 C46.09021484 5.72537109 46.09021484 5.72537109 48.22265625 11.56640625 C48.70733871 12.89387878 49.19202118 14.22135132 49.69139099 15.58905029 C51.92016809 21.69342127 54.14857315 27.79792703 56.37551594 33.90296745 C57.70063497 37.53565592 59.02603118 41.16824321 60.3515625 44.80078125 C60.75626801 45.9098691 60.75626801 45.9098691 61.1691494 47.04136276 C65.04398318 57.65867127 68.9327184 68.27080097 72.8308506 78.87957573 C74.43046454 83.2345495 76.02753143 87.59045801 77.62448406 91.94640827 C79.15946347 96.13239075 80.69866762 100.31678954 82.24079895 104.5001421 C83.42347137 107.71223654 84.59990565 110.92660828 85.77734375 114.140625 C86.42254471 115.8846888 86.42254471 115.8846888 87.08078003 117.66398621 C87.46783112 118.72394302 87.8548822 119.78389984 88.25366211 120.87597656 C88.59288193 121.79848206 88.93210175 122.72098755 89.28160095 123.67144775 C90 126 90 126 90 129 C76.47 129 62.94 129 49 129 C45.56097561 119.82926829 45.56097561 119.82926829 44.3125 115.6875 C44.06113281 114.86636719 43.80976562 114.04523438 43.55078125 113.19921875 C43 111 43 111 43 108 C28.81 108 14.62 108 0 108 C-0.99 111.96 -1.98 115.92 -3 120 C-3.99 122.97 -4.98 125.94 -6 129 C-19.53 129 -33.06 129 -47 129 C-42.22806982 114.47240054 -37.1853663 100.08806258 -31.875 85.75 C-31.10655075 83.66799861 -30.33841107 81.58588294 -29.57055664 79.50366211 C-27.92989219 75.05575706 -26.28747028 70.608506 -24.64404297 66.16162109 C-22.06495392 59.17992421 -19.49525506 52.19479732 -16.92735291 45.20898056 C-15.4753855 41.25928511 -14.02264247 37.30987488 -12.56994247 33.36044884 C-11.3873288 30.14525126 -10.20495251 26.92996688 -9.02313232 23.71447754 C-7.7029848 20.12295075 -6.38087835 16.53214681 -5.05859375 12.94140625 C-4.66152725 11.86043167 -4.26446075 10.77945709 -3.85536194 9.66572571 C-3.49244553 8.6810582 -3.12952911 7.69639069 -2.75561523 6.68188477 C-2.43906479 5.82152115 -2.12251434 4.96115753 -1.79637146 4.07472229 C-1 2 -1 2 0 0 Z M21 36 C19.28574421 41.6400991 17.57688932 47.28179516 15.87304688 52.92504883 C15.29250342 54.84509566 14.71047946 56.76469549 14.12695312 58.68383789 C13.28908068 61.44040974 12.45652339 64.19853855 11.625 66.95703125 C11.36251465 67.81649857 11.1000293 68.67596588 10.82958984 69.56147766 C10.46921631 70.76238289 10.46921631 70.76238289 10.1015625 71.98754883 C9.88838379 72.6914827 9.67520508 73.39541656 9.45556641 74.12068176 C8.88220631 76.16363541 8.88220631 76.16363541 9 79 C17.25 79 25.5 79 34 79 C30.55427838 64.49925485 26.30268968 50.26714279 22 36 C21.67 36 21.34 36 21 36 Z " fill="#696967" transform="translate(1463,953)"/>
<path d="M0 0 C12.148125 -0.061875 24.29625 -0.12375 36.8125 -0.1875 C40.6278833 -0.21481201 44.4432666 -0.24212402 48.37426758 -0.27026367 C53.08532715 -0.28381348 53.08532715 -0.28381348 55.30082703 -0.28633118 C56.82620378 -0.29089456 58.35157071 -0.30135426 59.87687683 -0.31672668 C73.18804484 -0.4440054 85.10931237 0.55923859 96 9 C104.04442443 17.04442443 107.08127661 27.94081658 107.25 39.0625 C107.09327871 51.58595573 104.21157196 62.81835158 95.1171875 71.875 C82.8655483 81.79535563 67.32872137 82.3279897 52.25 82.125 C45.69125 82.063125 45.69125 82.063125 39 82 C39 97.51 39 113.02 39 129 C26.13 129 13.26 129 0 129 C0 86.43 0 43.86 0 0 Z M39 27 C39 36.24 39 45.48 39 55 C52.18024184 55.5321626 52.18024184 55.5321626 63.9375 51.125 C67.2483599 47.71381101 67.90252768 45.99096858 68.375 41.1875 C68.23749741 36.85212434 67.12979013 33.09841378 64 30 C58.42024548 26.92544139 53.84347461 26.61667085 47.5625 26.8125 C43.3240625 26.9053125 43.3240625 26.9053125 39 27 Z " fill="#696967" transform="translate(11,953)"/>
<path d="M0 0 C13.2 0 26.4 0 40 0 C40 42.57 40 85.14 40 129 C26.8 129 13.6 129 0 129 C0 86.43 0 43.86 0 0 Z " fill="#696967" transform="translate(1362,953)"/>
<path d="M0 0 C12.87 0 25.74 0 39 0 C39 42.57 39 85.14 39 129 C26.13 129 13.26 129 0 129 C0 86.43 0 43.86 0 0 Z " fill="#696967" transform="translate(469,953)"/>
<path d="M0 0 C4.38253554 2.19126777 7.16669816 4.41674539 9 9 C9.71091959 13.66047288 9.51221747 17.65440388 7.3125 21.875 C4.9216619 25.1058623 3.73450325 26.58918766 0 28 C-4.7732715 28.70715133 -8.05281615 28.49113237 -12.375 26.25 C-16.78555117 22.46952757 -18.75791982 19.56604986 -19.3125 13.6875 C-18.83459269 8.04819378 -16.47049853 5.29951033 -12.3125 1.625 C-8.0324163 -0.4746637 -4.68276744 -0.83081358 0 0 Z " fill="#EC4D0D" transform="translate(1448,417)"/>
<path d="M0 0 C0.66 0.33 1.32 0.66 2 1 C0.35 2.65 -1.3 4.3 -3 6 C-2.67 6.66 -2.34 7.32 -2 8 C-3.98 8.66 -5.96 9.32 -8 10 C-6.34908222 5.70761377 -3.26245434 3.1206085 0 0 Z " fill="#F68C6A" transform="translate(471,843)"/>
</svg>
